<svg width="16" height="16" viewBox="0 0 16 16" fill="none" xmlns="http://www.w3.org/2000/svg">
<path d="M13.2394 3.27959H12.8282V2.36435C12.8282 1.06114 11.7671 0 10.4639 0H5.49974C4.19652 0 3.13538 1.06114 3.13538 2.36435V3.27959H2.76067C1.45746 3.27959 0.396317 4.34073 0.396317 5.64394V9.45741C0.396317 10.7606 1.45746 11.8218 2.76067 11.8218H3.13207V14.8195C3.13207 15.4694 3.66264 16 4.31259 16H11.6444C12.2943 16 12.8249 15.4694 12.8249 14.8195V11.8218H13.2394C14.5426 11.8218 15.6038 10.7606 15.6038 9.45741V5.64394C15.6038 4.34073 14.5426 3.27959 13.2394 3.27959ZM4.0274 2.36435C4.0274 1.55523 4.6873 0.895337 5.49642 0.895337H10.4572C11.2664 0.895337 11.9263 1.55523 11.9263 2.36435V3.27959H4.0274V2.36435ZM11.9296 14.8261C11.9296 14.982 11.8003 15.1113 11.6444 15.1113H4.31259C4.15673 15.1113 4.0274 14.982 4.0274 14.8261V9.88187H11.9296V14.8261ZM14.7084 9.46073C14.7084 10.2698 14.0485 10.9297 13.2394 10.9297H12.8282V9.88187H13.4185C13.6672 9.88187 13.8662 9.6829 13.8662 9.4342C13.8662 9.18549 13.6672 8.98653 13.4185 8.98653H2.47549C2.22678 8.98653 2.02782 9.18549 2.02782 9.4342C2.02782 9.6829 2.22678 9.88187 2.47549 9.88187H3.13538V10.9297H2.76067C1.95155 10.9297 1.29165 10.2698 1.29165 9.46073V5.64725C1.29165 4.83814 1.95155 4.17824 2.76067 4.17824H13.2394C14.0485 4.17824 14.7084 4.83814 14.7084 5.64725V9.46073Z" fill="#296EB4"/>
<path d="M5.11181 12.0838H10.8121C11.0608 12.0838 11.2598 11.8848 11.2598 11.6361C11.2598 11.3874 11.0608 11.1885 10.8121 11.1885H5.11181C4.8631 11.1885 4.66414 11.3874 4.66414 11.6361C4.66414 11.8848 4.86642 12.0838 5.11181 12.0838Z" fill="#296EB4"/>
<path d="M10.8486 13.0188H5.14495C4.89624 13.0188 4.69728 13.2178 4.69728 13.4665C4.69728 13.7152 4.89624 13.9141 5.14495 13.9141H10.8453C11.094 13.9141 11.2929 13.7152 11.2929 13.4665C11.2929 13.2178 11.094 13.0188 10.8486 13.0188Z" fill="#296EB4"/>
<path d="M13.2295 5.03717H12.3209C12.0722 5.03717 11.8732 5.23613 11.8732 5.48484C11.8732 5.73354 12.0722 5.93251 12.3209 5.93251H13.2295C13.4782 5.93251 13.6772 5.73354 13.6772 5.48484C13.6772 5.23613 13.4782 5.03717 13.2295 5.03717Z" fill="#296EB4"/>
</svg>
