<svg width="16" height="16" viewBox="0 0 16 16" fill="none" xmlns="http://www.w3.org/2000/svg">
<g clip-path="url(#clip0)">
<path d="M14.0468 1.91187H1.95655C0.877302 1.91187 0 2.78917 0 3.86841V12.1316C0 13.2109 0.877302 14.0882 1.95655 14.0882H14.0435C15.1227 14.0882 16 13.2109 16 12.1316V3.87172C16.0033 2.79248 15.126 1.91187 14.0468 1.91187ZM15.1095 12.1316C15.1095 12.7176 14.6327 13.1943 14.0468 13.1943H1.95655C1.37058 13.1943 0.893855 12.7176 0.893855 12.1316V3.87172C0.893855 3.28575 1.37058 2.80903 1.95655 2.80903H14.0435C14.6294 2.80903 15.1061 3.28575 15.1061 3.87172V12.1316H15.1095Z" fill="#296EB4"/>
<path d="M10.0906 7.89737L14.0037 4.38816C14.1858 4.22263 14.2023 3.94123 14.0368 3.75584C13.8713 3.57376 13.5899 3.5572 13.4045 3.72273L8.00823 8.5661L6.95546 7.6259C6.95215 7.62259 6.94884 7.61928 6.94884 7.61597C6.92567 7.59279 6.90249 7.57293 6.87601 7.55307L2.59213 3.71942C2.40674 3.55389 2.12534 3.57045 1.95981 3.75584C1.79428 3.94123 1.81083 4.22263 1.99622 4.38816L5.95567 7.92716L2.01278 11.6185C1.83401 11.7873 1.82408 12.0687 1.99291 12.2508C2.0823 12.3435 2.20148 12.3931 2.32066 12.3931C2.42991 12.3931 2.53916 12.3534 2.62523 12.2739L6.62772 8.52969L7.71358 9.49968C7.79966 9.57583 7.9056 9.61224 8.01154 9.61224C8.11747 9.61224 8.22672 9.57252 8.30949 9.49637L9.42515 8.49658L13.4045 12.2773C13.4905 12.36 13.6031 12.3997 13.7123 12.3997C13.8315 12.3997 13.9474 12.3534 14.0368 12.2607C14.2056 12.0819 14.199 11.7972 14.0202 11.6284L10.0906 7.89737Z" fill="#296EB4"/>
</g>
<defs>
<clipPath id="clip0">
<rect width="16" height="16" fill="white"/>
</clipPath>
</defs>
</svg>
