<svg width="16" height="16" viewBox="0 0 16 16" fill="none" xmlns="http://www.w3.org/2000/svg">
<g clip-path="url(#clip0)">
<path d="M12.6451 9.91137C12.3175 9.5703 11.9224 9.38795 11.5037 9.38795C11.0883 9.38795 10.6898 9.56693 10.3488 9.908L9.28168 10.9717C9.19388 10.9244 9.10608 10.8805 9.02166 10.8366C8.90009 10.7759 8.78527 10.7185 8.68734 10.6577C7.68778 10.0228 6.77939 9.19547 5.90814 8.12499C5.48603 7.59143 5.20237 7.14231 4.99638 6.68642C5.27329 6.43315 5.52993 6.16976 5.77982 5.91649C5.87438 5.82193 5.96893 5.724 6.06348 5.62945C6.77263 4.9203 6.77263 4.00178 6.06348 3.29263L5.14159 2.37073C5.0369 2.26605 4.92884 2.15799 4.82753 2.04993C4.62492 1.84056 4.41217 1.62444 4.19267 1.42182C3.86511 1.09764 3.47339 0.925415 3.06141 0.925415C2.64943 0.925415 2.25095 1.09764 1.91326 1.42182C1.90988 1.4252 1.90988 1.4252 1.90651 1.42857L0.758358 2.58685C0.326113 3.0191 0.079599 3.5459 0.0255685 4.15712C-0.0554774 5.14318 0.234937 6.06169 0.457813 6.66278C1.00487 8.13849 1.82208 9.50614 3.04115 10.9717C4.52024 12.7378 6.29987 14.1325 8.33277 15.1152C9.10945 15.4833 10.1462 15.9189 11.3044 15.9932C11.3754 15.9966 11.4497 15.9999 11.5172 15.9999C12.2973 15.9999 12.9524 15.7197 13.4657 15.1625C13.469 15.1557 13.4758 15.1523 13.4792 15.1456C13.6548 14.9328 13.8574 14.7404 14.0701 14.5344C14.2153 14.3959 14.3639 14.2507 14.5091 14.0987C14.8434 13.7509 15.019 13.3457 15.019 12.9303C15.019 12.5116 14.8401 12.1097 14.499 11.772L12.6451 9.91137ZM13.854 13.4673C13.8506 13.4673 13.8506 13.4706 13.854 13.4673C13.7223 13.6091 13.5872 13.7374 13.442 13.8792C13.2225 14.0886 12.9997 14.3081 12.7903 14.5546C12.4492 14.9193 12.0474 15.0916 11.5206 15.0916C11.4699 15.0916 11.4159 15.0916 11.3652 15.0882C10.3623 15.024 9.43026 14.6323 8.73124 14.298C6.81991 13.3727 5.14159 12.0591 3.74692 10.3943C2.5954 9.00636 1.82546 7.72313 1.31555 6.34536C1.0015 5.5045 0.88668 4.84938 0.937334 4.23141C0.971103 3.83631 1.12306 3.50875 1.40335 3.22847L2.55487 2.07694C2.72034 1.9216 2.89594 1.83718 3.06816 1.83718C3.28091 1.83718 3.45313 1.9655 3.56119 2.07356C3.56457 2.07694 3.56795 2.08032 3.57132 2.0837C3.77731 2.27618 3.97318 2.47542 4.17917 2.68816C4.28385 2.79622 4.39191 2.90428 4.49997 3.01572L5.42187 3.93762C5.77982 4.29557 5.77982 4.62651 5.42187 4.98446C5.32394 5.08239 5.22939 5.18032 5.13146 5.27487C4.8478 5.56529 4.57764 5.83544 4.28385 6.09884C4.2771 6.10559 4.27034 6.10897 4.26697 6.11573C3.97655 6.40614 4.03058 6.6898 4.09137 6.88228C4.09474 6.89241 4.09812 6.90254 4.1015 6.91268C4.34126 7.4935 4.67895 8.04056 5.19224 8.69231L5.19562 8.69568C6.12764 9.84383 7.11032 10.7387 8.19431 11.4242C8.33277 11.512 8.4746 11.5829 8.60967 11.6505C8.73124 11.7113 8.84606 11.7687 8.94399 11.8295C8.95749 11.8362 8.971 11.8463 8.98451 11.8531C9.09932 11.9105 9.20739 11.9375 9.31882 11.9375C9.59911 11.9375 9.77471 11.7619 9.83211 11.7045L10.987 10.5496C11.1018 10.4348 11.2842 10.2963 11.4969 10.2963C11.7063 10.2963 11.8785 10.428 11.9832 10.5429C11.9866 10.5462 11.9866 10.5462 11.99 10.5496L13.8506 12.4103C14.1985 12.7547 14.1985 13.1093 13.854 13.4673Z" fill="#296EB4"/>
<path d="M8.64684 3.80597C9.53159 3.95456 10.3353 4.37329 10.9769 5.01491C11.6185 5.65652 12.0339 6.46022 12.1859 7.34497C12.223 7.56785 12.4155 7.72319 12.635 7.72319C12.662 7.72319 12.6856 7.71981 12.7126 7.71643C12.9625 7.67591 13.128 7.43953 13.0875 7.18964C12.9051 6.11916 12.3986 5.14323 11.6253 4.36992C10.852 3.5966 9.87604 3.09007 8.80556 2.90771C8.55567 2.86719 8.32266 3.03266 8.27876 3.27917C8.23486 3.52569 8.39695 3.76545 8.64684 3.80597Z" fill="#296EB4"/>
<path d="M15.9814 7.05788C15.6809 5.29513 14.8502 3.6911 13.5737 2.41463C12.2972 1.13815 10.6932 0.307434 8.93043 0.00688914C8.68392 -0.0370107 8.45091 0.131835 8.40701 0.378349C8.36649 0.62824 8.53196 0.861247 8.78185 0.905147C10.3555 1.17192 11.7907 1.91822 12.9321 3.05624C14.0735 4.19763 14.8164 5.63282 15.0832 7.20646C15.1203 7.42934 15.3128 7.58467 15.5323 7.58467C15.5593 7.58467 15.5829 7.5813 15.61 7.57792C15.8565 7.54077 16.0253 7.30439 15.9814 7.05788Z" fill="#296EB4"/>
</g>
<defs>
<clipPath id="clip0">
<rect width="16" height="16" fill="white"/>
</clipPath>
</defs>
</svg>
