<svg width="59" height="20" viewBox="0 0 59 20" fill="none" xmlns="http://www.w3.org/2000/svg">
<path d="M17.4804 9.91675H14.5686V11.767H17.4804V9.91675Z" fill="#296EB4"/>
<path d="M14.5686 9.91675H0V11.767H14.5686V9.91675Z" fill="#1E1C1D"/>
<path d="M8.34314 8.7323H6.22549V11.7768H8.34314V8.7323Z" fill="#1E1C1D"/>
<path d="M31.7843 3.30884H27.0196V5.42338H31.7843V3.30884Z" fill="#1E1C1D"/>
<path d="M34.4314 3.30884H31.7843V5.42338H34.4314V3.30884Z" fill="#95CDE6"/>
<path d="M29.1373 0H27.0196V15.2031H29.1373V0Z" fill="#1E1C1D"/>
<path d="M12.451 6.87219H2.38235V8.72241H12.451V6.87219Z" fill="#1E1C1D"/>
<path d="M12.451 3.04456H2.38235V4.89478H12.451V3.04456Z" fill="#1E1C1D"/>
<path d="M4.76471 3.04456H2.38235V8.73227H4.76471V3.04456Z" fill="#1E1C1D"/>
<path d="M23.598 7.50861C22.8824 6.34366 22.3824 4.96334 22.3824 3.5047V0.930054H21.2745H20V3.51449C20 4.97313 19.6078 6.35345 18.8922 7.5184C18.1765 8.68336 17.2255 9.28052 16.1863 9.94621L17.4902 11.7964C17.5098 11.7866 20.5784 9.47631 21.2745 7.83167C22.0686 9.4861 24.9608 11.9139 24.9804 11.9237L26.4118 10.0735C25.3529 9.40778 24.3039 8.67357 23.598 7.50861Z" fill="#1E1C1D"/>
<path d="M34.4314 5.42338V3.30884H42.7745V5.42338H40.1471H34.4314Z" fill="#1E1C1D"/>
<path d="M35.2059 12.3347L34.4314 10.1125C37.7549 8.98673 39.5196 8.06651 40.1471 5.42334H42.7745C41.9608 10.0538 38.1961 11.3362 35.2059 12.3347Z" fill="#1E1C1D"/>
<path d="M45.5588 7.66516H40.1274V9.7797H45.5588V7.66516Z" fill="#1E1C1D"/>
<path d="M47.6765 2.51587H45.5588V12.3054H47.6765V2.51587Z" fill="#1E1C1D"/>
<path d="M45.5588 3.96472H41.1862V6.07926H45.5588V3.96472Z" fill="#1E1C1D"/>
<path d="M43.4216 12.7166C40.8628 12.7166 39.1961 14.4395 39.1961 16.3485C39.1961 18.2966 40.8628 20 43.4216 20C45.9804 20 47.6471 18.2966 47.6471 16.3485C47.6569 14.4395 46 12.7166 43.4216 12.7166ZM43.402 17.9637C42.2843 17.9637 41.3726 17.2491 41.3726 16.368C41.3726 15.487 42.2843 14.7724 43.402 14.7724C44.5196 14.7724 45.4314 15.487 45.4314 16.368C45.4314 17.2491 44.5196 17.9637 43.402 17.9637Z" fill="#1E1C1D"/>
<path d="M7.36273 12.7166C4.8039 12.7166 3.13724 14.4395 3.13724 16.3485C3.13724 18.2966 4.8039 20 7.36273 20C9.92155 20 11.5882 18.2966 11.5882 16.3485C11.598 14.4395 9.94116 12.7166 7.36273 12.7166ZM7.34312 17.9637C6.22547 17.9637 5.31371 17.2491 5.31371 16.368C5.31371 15.487 6.21567 14.7724 7.34312 14.7724C8.46077 14.7724 9.37253 15.487 9.37253 16.368C9.37253 17.2491 8.46077 17.9637 7.34312 17.9637Z" fill="#1E1C1D"/>
<path d="M51.2745 5.46261C50.8725 5.1885 50.5784 4.90461 50.3529 4.46408C50.1078 4.9144 49.8039 5.26682 49.3627 5.5605L48.9314 5.14934C49.2353 4.96334 49.4902 4.69903 49.6961 4.40534C49.902 4.11166 50.0294 3.75923 50.0294 3.27955V2.69217H50.6569V3.25997C50.6569 3.70049 50.7745 4.06271 50.9804 4.3466C51.1863 4.62071 51.4314 4.85566 51.6961 5.02208L51.2745 5.46261ZM53.6274 7.58694H50.3137V5.87377H50.951V7.0583H53.6274V7.58694ZM52.5294 6.11851H51.9314V4.18018H51.2255V3.64176H51.9314V2.51596H52.5294V6.11851ZM53.5784 6.20661H52.9804V2.42786H53.5784V6.20661Z" fill="black"/>
<path d="M54.6862 2.78028H57.049V3.30891H55.3039V4.13123H56.8235V4.65987H55.3039V5.58008C56.0196 5.58987 56.8627 5.50177 57.5882 5.36471L57.6666 5.89335C56.7451 6.07935 55.7255 6.1283 54.6862 6.10872V2.78028ZM58.8235 2.42786V7.46946H58.2059V4.58155H57.0882V4.05292H58.2059V2.42786H58.8235Z" fill="black"/>
</svg>
