<svg width="18" height="18" viewBox="0 0 18 18" fill="none" xmlns="http://www.w3.org/2000/svg">
<g clip-path="url(#clip0)">
<path d="M15.6666 0.111145H2.33322C1.10767 0.111145 0.111 1.10781 0.111 2.33337V15.6667C0.111 16.8923 1.10767 17.8889 2.33322 17.8889H15.6666C16.8921 17.8889 17.8888 16.8923 17.8888 15.6667V2.33337C17.8888 1.10781 16.8921 0.111145 15.6666 0.111145Z" fill="#1976D2"/>
<path d="M15.111 9.00001H12.3332V6.77779C12.3332 6.16446 12.831 6.22224 13.4443 6.22224H14.5554V3.44446H12.3332C10.4921 3.44446 8.99989 4.93668 8.99989 6.77779V9.00001H6.77766V11.7778H8.99989V17.8889H12.3332V11.7778H13.9999L15.111 9.00001Z" fill="#FAFAFA"/>
</g>
<defs>
<clipPath id="clip0">
<rect width="17.7778" height="17.7778" fill="white" transform="translate(0.111 0.111145)"/>
</clipPath>
</defs>
</svg>
