<svg width="18" height="18" viewBox="0 0 18 18" fill="none" xmlns="http://www.w3.org/2000/svg">
<g clip-path="url(#clip0)">
<path d="M12.3001 0.200073H5.7001C2.663 0.200073 0.200104 2.66297 0.200104 5.70007V12.3001C0.200104 15.3372 2.663 17.8001 5.7001 17.8001H12.3001C15.3372 17.8001 17.8001 15.3372 17.8001 12.3001V5.70007C17.8001 2.66297 15.3372 0.200073 12.3001 0.200073ZM16.1501 12.3001C16.1501 14.4231 14.4231 16.1501 12.3001 16.1501H5.7001C3.5771 16.1501 1.8501 14.4231 1.8501 12.3001V5.70007C1.8501 3.57707 3.5771 1.85007 5.7001 1.85007H12.3001C14.4231 1.85007 16.1501 3.57707 16.1501 5.70007V12.3001Z" fill="url(#paint0_linear)"/>
<path d="M9.0001 4.6001C6.5702 4.6001 4.6001 6.5702 4.6001 9.0001C4.6001 11.43 6.5702 13.4001 9.0001 13.4001C11.43 13.4001 13.4001 11.43 13.4001 9.0001C13.4001 6.5702 11.43 4.6001 9.0001 4.6001ZM9.0001 11.7501C7.4843 11.7501 6.2501 10.5159 6.2501 9.0001C6.2501 7.4832 7.4843 6.2501 9.0001 6.2501C10.5159 6.2501 11.7501 7.4832 11.7501 9.0001C11.7501 10.5159 10.5159 11.7501 9.0001 11.7501Z" fill="url(#paint1_linear)"/>
<path d="M13.7301 4.85637C14.0539 4.85637 14.3164 4.59388 14.3164 4.27007C14.3164 3.94627 14.0539 3.68378 13.7301 3.68378C13.4063 3.68378 13.1438 3.94627 13.1438 4.27007C13.1438 4.59388 13.4063 4.85637 13.7301 4.85637Z" fill="url(#paint2_linear)"/>
</g>
<defs>
<linearGradient id="paint0_linear" x1="1.81122" y1="16.1891" x2="16.189" y2="1.81108" gradientUnits="userSpaceOnUse">
<stop stop-color="#FFC107"/>
<stop offset="0.507" stop-color="#F44336"/>
<stop offset="0.99" stop-color="#9C27B0"/>
</linearGradient>
<linearGradient id="paint1_linear" x1="5.88891" y1="12.1113" x2="12.1113" y2="5.88891" gradientUnits="userSpaceOnUse">
<stop stop-color="#FFC107"/>
<stop offset="0.507" stop-color="#F44336"/>
<stop offset="0.99" stop-color="#9C27B0"/>
</linearGradient>
<linearGradient id="paint2_linear" x1="13.3156" y1="4.68472" x2="14.1447" y2="3.85554" gradientUnits="userSpaceOnUse">
<stop stop-color="#FFC107"/>
<stop offset="0.507" stop-color="#F44336"/>
<stop offset="0.99" stop-color="#9C27B0"/>
</linearGradient>
<clipPath id="clip0">
<rect width="17.6" height="17.6" fill="white" transform="translate(0.200104 0.200073)"/>
</clipPath>
</defs>
</svg>
