<svg width="18" height="18" viewBox="0 0 18 18" fill="none" xmlns="http://www.w3.org/2000/svg">
<g clip-path="url(#clip0)">
<path d="M17.1332 4.06657C16.651 3.20879 16.1277 3.05102 15.0621 2.99102C13.9977 2.91879 11.321 2.88879 9.00211 2.88879C6.67878 2.88879 4.001 2.91879 2.93767 2.98991C1.87434 3.05102 1.34989 3.20768 0.863226 4.06657C0.366559 4.92324 0.111004 6.39879 0.111004 8.99657C0.111004 8.99879 0.111004 8.9999 0.111004 8.9999C0.111004 9.00213 0.111004 9.00324 0.111004 9.00324V9.00546C0.111004 11.5921 0.366559 13.0788 0.863226 13.9266C1.34989 14.7843 1.87323 14.9399 2.93656 15.0121C4.001 15.0743 6.67878 15.111 9.00211 15.111C11.321 15.111 13.9977 15.0743 15.0632 15.0132C16.1288 14.941 16.6521 14.7855 17.1343 13.9277C17.6354 13.0799 17.8888 11.5932 17.8888 9.00657C17.8888 9.00657 17.8888 9.00324 17.8888 9.00102C17.8888 9.00102 17.8888 8.99879 17.8888 8.99768C17.8888 6.39879 17.6354 4.92324 17.1332 4.06657Z" fill="#F44336"/>
<path d="M6.77767 12.3332V5.66656L12.3332 8.9999L6.77767 12.3332Z" fill="#FAFAFA"/>
</g>
<defs>
<clipPath id="clip0">
<rect width="17.7778" height="17.7778" fill="white" transform="translate(0.111004 0.111023)"/>
</clipPath>
</defs>
</svg>
