<svg width="280" height="298" viewBox="0 0 280 298" fill="none" xmlns="http://www.w3.org/2000/svg">
<path opacity="0.5" d="M227.563 290.458C237.663 290.458 245.852 289.555 245.852 288.442C245.852 287.329 237.663 286.426 227.563 286.426C217.462 286.426 209.274 287.329 209.274 288.442C209.274 289.555 217.462 290.458 227.563 290.458Z" fill="url(#paint0_linear)"/>
<path opacity="0.5" d="M157.599 291.106C167.7 291.106 175.888 290.203 175.888 289.09C175.888 287.977 167.7 287.074 157.599 287.074C147.499 287.074 139.31 287.977 139.31 289.09C139.31 290.203 147.499 291.106 157.599 291.106Z" fill="url(#paint1_linear)"/>
<path opacity="0.5" d="M93.3983 297.921C103.499 297.921 111.687 297.018 111.687 295.905C111.687 294.792 103.499 293.889 93.3983 293.889C83.2977 293.889 75.1096 294.792 75.1096 295.905C75.1096 297.018 83.2977 297.921 93.3983 297.921Z" fill="url(#paint2_linear)"/>
<path opacity="0.5" d="M56.2732 279.803C83.8919 279.803 106.281 278.901 106.281 277.787C106.281 276.674 83.8919 275.772 56.2732 275.772C28.6545 275.772 6.26506 276.674 6.26506 277.787C6.26506 278.901 28.6545 279.803 56.2732 279.803Z" fill="url(#paint3_linear)"/>
<path d="M246.828 116.433C246.185 116.433 245.566 116.529 244.97 116.697C245.09 115.977 245.161 115.257 245.161 114.489C245.161 107.65 239.66 102.083 232.849 102.083C226.658 102.083 221.514 106.714 220.681 112.713C219.395 111.969 217.871 111.537 216.275 111.537C211.37 111.537 207.393 115.545 207.393 120.488C207.393 125.432 211.37 129.439 216.275 129.439H246.804C250.376 129.439 253.281 126.511 253.281 122.912C253.305 119.336 250.4 116.433 246.828 116.433Z" fill="white"/>
<path d="M36.4128 84.2529C37.3415 84.2529 38.2464 84.3968 39.1037 84.6608C38.9132 83.6289 38.818 82.5731 38.818 81.4692C38.818 71.5585 46.7716 63.5436 56.6066 63.5436C65.5842 63.5436 72.9902 70.2387 74.2047 78.9256C76.0859 77.8457 78.2529 77.2218 80.5628 77.2218C87.6592 77.2218 93.4221 83.029 93.4221 90.1801C93.4221 97.3311 87.6592 103.138 80.5628 103.138H36.4128C31.2453 103.138 27.0542 98.9149 27.0542 93.7076C27.0542 88.4763 31.2453 84.2529 36.4128 84.2529Z" fill="white"/>
<path d="M180.508 0H179.198V100.499H180.508V0Z" fill="url(#paint4_linear)"/>
<path d="M247.161 205.293C233.159 205.293 221.943 193.655 222.229 179.544C222.229 179.041 222.252 178.537 222.252 178.033C222.348 131.767 185.318 93.7557 139.406 93.0598C92.3266 92.3399 53.9632 130.567 53.9632 177.841C53.9632 181.368 54.1775 184.848 54.6062 188.255H52.5106C29.7212 188.255 11.242 206.877 11.242 229.842C11.242 252.807 29.7212 271.428 52.5106 271.428H53.225H69.7039H247.185C265.307 271.428 280 256.622 280 238.361C279.976 220.099 265.283 205.293 247.161 205.293Z" fill="white"/>
<path d="M245.732 229.842H147.931V271.428H245.732V229.842Z" fill="white"/>
<path d="M119.426 95.1476C85.2302 102.947 58.9164 131.743 54.5824 167.402V188.255H119.426V95.1476Z" fill="white"/>
<path d="M210.346 102.275L151.67 113.073C149.193 113.529 147.526 115.929 147.979 118.448L151.408 137.382C151.67 138.798 153.337 139.422 154.432 138.486C155.932 137.214 157.813 136.326 159.957 136.062C165.243 135.414 170.22 138.942 171.411 144.173C172.768 150.076 168.934 155.86 163.076 156.939C161.219 157.275 159.409 157.107 157.742 156.531C156.385 156.052 155.004 157.203 155.265 158.643L158.695 177.577C159.147 180.072 161.528 181.752 164.029 181.296L183.556 177.697C184.723 177.481 185.651 178.657 185.199 179.76C184.342 181.776 184.103 184.08 184.651 186.384C185.889 191.615 190.938 195.118 196.248 194.398C202.202 193.583 206.226 187.943 205.155 182.04C204.774 179.928 203.773 178.057 202.392 176.617C201.559 175.753 202.011 174.313 203.202 174.097L222.729 170.498C225.205 170.042 226.872 167.642 226.42 165.122L215.704 105.994C215.204 103.474 212.822 101.819 210.346 102.275Z" fill="#2F80ED"/>
<path d="M235.112 268.117V208.029C235.112 205.485 233.064 203.421 230.54 203.421H211.441C210.012 203.421 209.108 204.981 209.822 206.205C210.798 207.933 211.322 209.948 211.179 212.108C210.846 217.459 206.512 221.755 201.202 221.995C195.177 222.283 190.224 217.435 190.224 211.436C190.224 209.54 190.724 207.765 191.581 206.229C192.295 204.957 191.414 203.397 189.962 203.397H170.863C168.339 203.397 166.291 205.461 166.291 208.005V227.994C166.291 229.194 164.958 229.914 163.981 229.242C162.171 228.042 159.981 227.37 157.623 227.49C152.289 227.778 147.979 232.145 147.717 237.545C147.431 243.616 152.241 248.607 158.195 248.607C160.338 248.607 162.314 247.959 163.981 246.855C164.981 246.184 166.291 246.904 166.291 248.103V268.093C166.291 270.636 168.339 272.7 170.863 272.7H230.516C233.064 272.748 235.112 270.684 235.112 268.117Z" fill="#F2C94C"/>
<path d="M60.8215 250.791H120.474C122.998 250.791 125.046 248.727 125.046 246.184V226.938C125.046 225.498 123.498 224.587 122.284 225.306C120.569 226.29 118.569 226.818 116.426 226.674C111.115 226.338 106.853 221.971 106.615 216.62C106.329 210.548 111.139 205.557 117.093 205.557C118.974 205.557 120.736 206.061 122.26 206.925C123.522 207.645 125.07 206.757 125.07 205.293V186.048C125.07 183.504 123.022 181.44 120.498 181.44H100.661C99.4706 181.44 98.7562 180.096 99.423 179.113C100.614 177.289 101.28 175.081 101.161 172.705C100.876 167.33 96.5416 162.987 91.1836 162.723C85.1588 162.435 80.2056 167.282 80.2056 173.281C80.2056 175.441 80.8486 177.433 81.944 179.113C82.6108 180.12 81.8963 181.44 80.7057 181.44H60.8691C58.3449 181.44 56.297 183.504 56.297 186.048V246.16C56.2493 248.727 58.2973 250.791 60.8215 250.791Z" fill="#56CCF2"/>
<path d="M58.3926 94.9316V155.044C58.3926 157.587 60.4406 159.651 62.9648 159.651H82.0631C83.4919 159.651 84.3968 158.091 83.6824 156.867C82.7061 155.14 82.1822 153.124 82.3251 150.964C82.6585 145.613 86.9925 141.317 92.3029 141.077C98.3277 140.79 103.281 145.637 103.281 151.636C103.281 153.532 102.781 155.308 101.923 156.843C101.209 158.115 102.09 159.675 103.543 159.675H122.641C125.165 159.675 127.213 157.611 127.213 155.068V135.078C127.213 133.878 128.547 133.159 129.523 133.83C131.333 135.03 133.524 135.702 135.881 135.582C141.216 135.294 145.526 130.927 145.788 125.528C146.074 119.456 141.263 114.465 135.31 114.465C133.167 114.465 131.19 115.113 129.523 116.217C128.523 116.889 127.213 116.169 127.213 114.969V94.9795C127.213 92.4359 125.165 90.3722 122.641 90.3722H62.9648C60.4406 90.3242 58.3926 92.3879 58.3926 94.9316Z" fill="#6FCF97"/>
<path d="M88.0641 241.696L88.6833 240.256C88.4452 240.16 88.3023 240.088 88.2785 240.088C88.0641 240.064 87.445 238.96 87.1592 238.769C86.8497 238.577 87.0164 239.68 87.0164 239.68L84.4921 239.488C84.4921 239.488 83.7301 240.208 84.5636 240.808C85.397 241.408 87.445 241.336 87.8022 241.552C87.8498 241.576 87.9451 241.624 88.0641 241.696Z" fill="#E7E3D3"/>
<path d="M88.0165 241.768C87.9926 240.952 88.0403 240.304 88.0165 239.488C93.0649 242.872 99.3278 241.216 99.3278 241.216L99.9231 244.96C95.3986 246.255 90.6836 243.592 88.0165 241.768Z" fill="url(#paint5_linear)"/>
<path d="M90.1359 245.824L79.8485 213.86L68.2276 177.745H57.2734L66.9416 207.789L77.229 239.729L89.4691 277.764H90.3026L89.3024 274.668H98.5896L99.5898 277.764H100.423L90.1359 245.824ZM58.4879 178.896H67.7751L69.8945 185.448H60.6073L58.4879 178.896ZM61.0597 186.863H70.3469L72.4663 193.415H63.1791L61.0597 186.863ZM63.6316 194.83H72.9188L75.0382 201.382H65.751L63.6316 194.83ZM66.1796 202.797H75.4668L77.0623 207.765L77.5624 209.348H68.2752L66.1796 202.797ZM69.7278 213.836L68.7753 210.836H78.0625L80.1819 217.387H70.8947L69.7278 213.836ZM71.3471 218.827H80.6343L82.7537 225.378H73.4665L71.3471 218.827ZM73.8951 226.794H83.1824L85.3018 233.345H76.0145L73.8951 226.794ZM76.467 234.761H85.7542L87.3497 239.729L87.8498 241.312H78.5626L76.467 234.761ZM80.0152 245.824L79.0626 242.824H88.3499L90.4693 249.375H81.182L80.0152 245.824ZM81.6107 250.791H90.8979L93.0173 257.342H83.7301L81.6107 250.791ZM84.1825 258.758H93.4697L95.5891 265.309H86.3019L84.1825 258.758ZM88.8499 273.276L86.7306 266.725H96.0178L98.1372 273.276H88.8499Z" fill="url(#paint6_linear)"/>
<path d="M58.6069 207.765L68.2751 177.721H57.3209L45.7 213.836L35.4126 245.8L25.1252 277.763H25.9587L26.9589 274.668H36.2461L35.2459 277.763H36.0794L48.3433 239.728L58.6069 207.765ZM57.7734 178.896H67.0606L64.9412 185.448H55.654L57.7734 178.896ZM55.2254 186.863H64.5126L62.3932 193.415H53.106L55.2254 186.863ZM52.6535 194.83H61.9407L59.8213 201.381H50.5341L52.6535 194.83ZM36.6985 273.276H27.4113L29.5307 266.725H38.8179L36.6985 273.276ZM39.2704 265.309H29.9832L32.1026 258.758H41.3898L39.2704 265.309ZM41.8422 257.342H32.555L34.6744 250.791H43.9616L41.8422 257.342ZM45.5571 245.824L44.4141 249.399H35.1269L37.2462 242.848H46.5335L45.5571 245.824ZM46.9859 241.312H37.6987L38.1988 239.728L39.7943 234.761H49.0815L46.9859 241.312ZM49.5578 233.345H40.2706L42.3899 226.794H51.6772L49.5578 233.345ZM52.1058 225.378H42.8186L44.938 218.827H54.2252L52.1058 225.378ZM55.8207 213.836L54.6776 217.411H45.3904L47.5098 210.86H56.797L55.8207 213.836ZM47.9861 209.348L48.4862 207.765L50.0817 202.797H59.3689L57.2495 209.348H47.9861V209.348Z" fill="url(#paint7_linear)"/>
<path d="M59.4403 158.259C58.2497 155.716 58.0353 151.276 58.1068 150.916C58.1782 150.556 58.7974 150.34 58.9403 150.268C59.0831 150.196 59.9642 150.028 60.0119 149.74C60.0595 149.428 58.9879 149.62 58.9879 149.62C58.9879 149.62 58.9879 147.893 59.2022 146.813C59.4165 145.757 57.821 146.837 57.3924 147.317C56.9637 147.797 57.0114 148.972 57.059 149.812C57.059 149.812 55.5349 159.171 57.1543 160.611C58.2735 161.595 62.2027 160.995 62.2027 160.995L62.6075 158.067L59.4403 158.259Z" fill="#E7E3D3"/>
<path d="M69.1324 207.117L64.7746 206.013L64.2269 205.005L61.3216 205.029L60.8692 208.605L70.4183 208.557C70.204 207.813 69.7277 207.261 69.1324 207.117Z" fill="url(#paint8_linear)"/>
<path d="M77.1814 193.631L73.276 191.375L73.014 190.271L70.2279 189.503L68.8467 192.815L78.0624 195.382C78.0386 194.566 77.7053 193.918 77.1814 193.631Z" fill="url(#paint9_linear)"/>
<path d="M70.1088 189.743L72.9664 190.439C73.0617 190.127 77.3243 176.545 76.9194 173.497C76.4908 170.426 69.2753 170.498 69.2753 170.498L62.7981 169.634L60.2739 180.384C61.4645 180.552 62.7981 180.456 64.2745 179.856C70.1802 177.505 71.7519 176.617 71.7519 176.617C71.7519 176.617 69.061 180.672 70.1088 189.743Z" fill="url(#paint10_linear)"/>
<path d="M66.5129 172.945L55.273 175.273C54.3919 180.144 60.2738 184.704 60.2976 185.352C60.2976 186.023 61.3216 205.293 61.3216 205.293H64.3697C64.3697 205.293 66.4653 186.959 66.5844 185.544C66.6558 184.152 66.5129 172.945 66.5129 172.945Z" fill="url(#paint11_linear)"/>
<path d="M67.6322 155.284C67.6322 155.284 66.7749 156.075 69.5611 156.963L70.8232 158.475C70.8232 158.475 66.9416 165.77 66.6558 174.985L54.9158 175.873C54.9158 175.873 53.368 168.89 59.0117 160.635C59.0355 160.635 62.1789 156.627 67.6322 155.284Z" fill="url(#paint12_linear)"/>
<path d="M67.3464 151.948C67.0368 152.452 66.6082 154.396 66.3224 155.739C66.3463 155.715 66.3701 155.715 66.3701 155.691C66.3701 155.691 66.6558 157.107 69.5611 156.963C69.5373 156.627 69.5134 156.315 69.442 156.243L69.5611 154.612L72.633 154.372L72.5377 152.38L73.1093 152.236L72.3472 148.54C66.251 149.188 67.8227 151.156 67.3464 151.948Z" fill="#E7E3D3"/>
<path d="M69.6801 150.82C70.1088 150.316 70.6565 149.932 71.2518 149.644C71.6567 149.452 72.1329 149.092 72.3472 148.516C72.7044 147.557 71.7519 146.549 71.0137 146.117C69.1086 145.013 67.013 145.613 65.489 147.077C64.727 147.797 64.1078 148.684 63.6553 149.62C63.1314 150.7 63.2505 151.684 62.9648 152.812C62.5837 154.276 61.4407 155.428 60.25 156.339C59.0594 157.251 57.702 158.019 56.6542 159.099C55.6064 160.179 54.8444 161.739 55.1778 163.227C55.3921 164.186 56.0112 165.002 56.7733 165.602C58.5593 167.018 60.5596 168.002 62.7981 166.85C65.8938 165.266 66.894 161.163 67.7513 158.067C68.2751 156.195 68.7276 154.252 68.8229 152.308C68.8229 152.308 68.0608 151.036 68.7276 150.58C69.3944 150.124 69.6087 150.868 69.6087 150.868L69.6801 150.82Z" fill="#8C0C81"/>
<path d="M74.3952 161.043C76.967 159.939 80.0628 156.795 80.2533 156.483C80.4438 156.171 80.1104 155.595 80.0628 155.451C80.0152 155.284 79.4674 154.588 79.6341 154.324C79.8008 154.06 80.4676 154.948 80.4676 154.948C80.4676 154.948 81.6345 153.652 82.1584 152.716C82.6823 151.78 83.1823 153.652 83.1823 154.3C83.1823 154.948 82.3727 155.787 81.7535 156.363C81.7535 156.363 76.6813 164.354 74.5143 164.33C73.0378 164.33 70.5136 161.211 70.5136 161.211L72.1567 158.763L74.3952 161.043Z" fill="#E7E3D3"/>
<path d="M75.0382 160.611C75.0382 160.611 70.4422 156.531 68.942 157.347C67.4417 158.139 70.9423 162.747 72.3473 163.706C72.3473 163.682 74.6096 162.603 75.0382 160.611Z" fill="url(#paint13_linear)"/>
<path d="M211.989 85.1648L208.274 83.437L207.321 83.821L205.273 82.1412L206.988 79.3575L213.703 84.9008C213.132 85.3088 212.489 85.4047 211.989 85.1648Z" fill="url(#paint14_linear)"/>
<path d="M169.768 103.354L167.982 103.834L168.006 104.386L164.553 104.746C163.433 99.1309 165.577 99.9708 166.148 99.3229C166.529 98.891 168.244 97.8591 169.339 97.2352C169.411 96.9712 170.506 96.2273 170.72 96.1553C171.244 95.9393 171.887 96.2273 172.244 97.1392C172.602 98.0511 174.245 98.243 173.721 98.459C173.554 98.531 170.696 100.067 170.506 99.9708L169.101 100.547L169.768 103.354Z" fill="#E7E3D3"/>
<path d="M162.338 106.714C161.743 106.666 161.171 106.282 160.981 105.706C160.909 105.49 160.885 105.25 160.885 105.034C160.814 103.93 160.766 102.826 160.695 101.723C160.647 100.859 160.814 100.187 161.147 99.3949C162.028 97.3792 164.529 96.3713 166.577 97.1872C166.672 97.2352 168.101 98.1711 168.029 98.2191L165.91 99.4909L166.386 99.9708L166.315 100.211C165.696 100.355 165.196 100.715 165.243 101.387C165.267 102.227 165.148 103.042 164.934 103.858C164.743 104.578 164.576 105.466 164.052 105.994C164.029 106.018 164.005 106.042 163.981 106.066C163.529 106.498 162.933 106.762 162.338 106.714Z" fill="#8552A5"/>
<path d="M193.867 72.0385L196.296 70.9586C196.439 71.2226 202.416 82.6931 202.511 85.4767C202.63 88.3083 196.129 89.3882 196.129 89.3882L190.462 91.212L186.485 81.9972C187.509 81.6612 188.747 81.5412 190.152 81.8292C195.82 82.981 197.367 83.509 197.367 83.509C197.367 83.509 194.367 80.3174 193.867 72.0385Z" fill="url(#paint15_linear)"/>
<path d="M184.937 81.9492C184.937 81.9492 191.152 80.2934 194.153 85.8607C197.177 91.428 197.82 93.1077 197.82 93.1077C197.82 93.1077 197.677 87.8764 205.512 81.7572L207.774 83.629C207.774 83.629 202.035 96.6833 199.773 98.771C197.51 100.859 192.057 96.1553 192.057 96.1553L186.509 92.6278L184.937 81.9492Z" fill="url(#paint16_linear)"/>
<path d="M169.387 97.4512C169.387 97.4512 170.601 96.9473 171.935 99.275L172.84 99.6829C172.84 99.6829 178.483 94.7396 186.532 92.6519L184.961 81.9733C184.961 81.9733 178.507 81.9973 172.387 88.7164C172.363 88.6684 169.458 92.2919 169.387 97.4512Z" fill="url(#paint17_linear)"/>
<path d="M199.606 67.4311L196.391 69.9508L196.296 70.9827L193.867 72.0385L192.2 69.2309L200.177 65.7513C200.249 66.4473 200.035 67.0952 199.606 67.4311Z" fill="url(#paint18_linear)"/>
<path d="M184.27 112.641L182.913 110.337C182.913 110.337 182.055 111.153 182.055 110.769C182.055 110.385 182.627 109.186 182.508 108.994C182.389 108.802 180.912 100.691 180.912 100.691L175.84 97.7151L180.484 96.9952C181.889 97.8351 182.984 98.579 183.056 98.963C183.151 99.4669 183.961 108.082 184.008 108.514C184.056 108.97 185.318 110.697 185.318 111.777C185.342 112.881 184.27 112.641 184.27 112.641Z" fill="#E7E3D3"/>
<path d="M182.389 108.466L180.531 100.883C177.65 99.3949 173.173 96.6833 171.482 95.6514L178.15 94.0197C179.722 95.2195 182.746 97.7872 183.056 98.0991C183.865 98.987 184.008 107.866 184.008 107.866C183.294 108.682 182.389 108.466 182.389 108.466Z" fill="url(#paint19_linear)"/>
<path d="M178.436 108.154L180.222 107.818C180.174 105.802 179.96 99.4189 179.293 98.675C179.007 98.363 177.65 97.3071 176.078 96.1073L170.958 98.195C172.649 99.2269 173.935 99.9708 176.793 101.459L178.436 108.154Z" fill="url(#paint20_linear)"/>
<path d="M183.318 93.6117L182.079 94.1876L177.412 83.8929L178.65 83.317L183.318 93.6117Z" fill="url(#paint21_linear)"/>
<path d="M184.199 93.2997L182.913 93.7556L179.198 83.077L180.484 82.6211L184.199 93.2997Z" fill="url(#paint22_linear)"/>
<path d="M86.3971 236.273L87.4449 235.121C87.2544 234.953 87.1353 234.857 87.1115 234.833C86.921 234.737 86.7067 233.489 86.4924 233.201C86.2781 232.913 86.0637 234.017 86.0637 234.017L83.7538 233.009C83.7538 233.009 82.8013 233.441 83.3966 234.281C83.992 235.121 85.9209 235.745 86.2066 236.057C86.2304 236.081 86.3019 236.153 86.3971 236.273Z" fill="#E7E3D3"/>
<path d="M103.162 295.257L105.829 293.673L105.996 292.905L107.924 292.354L108.901 294.633L102.59 296.481C102.59 295.929 102.805 295.473 103.162 295.257Z" fill="url(#paint23_linear)"/>
<path d="M104.329 273.564L104.781 272.892H99.1136C99.1136 272.892 99.0421 273.444 99.4708 274.284C99.8756 275.124 105.376 291.226 106.091 292.857L107.925 292.329C107.925 292.353 106.591 279.587 104.329 273.564Z" fill="#E7E3D3"/>
<path d="M97.7799 273.3C97.7799 273.3 97.2798 273.108 97.4941 273.996C97.7084 274.908 99.7802 292.905 100.09 294.681H102.09C102.09 294.681 103.09 280.139 102.257 273.756L102.471 273.3H97.7799Z" fill="#E7E3D3"/>
<path d="M98.0182 235.985L98.1611 233.921L97.5895 233.753L98.4706 229.962C104.734 230.802 103.067 232.769 103.543 233.609C103.781 234.041 104.091 236.177 104.353 237.737C104.114 238.145 103.352 238.888 101.162 238.721C101.185 238.361 101.233 238.049 101.304 237.977L101.209 236.273L98.0182 235.985Z" fill="#E7E3D3"/>
<path d="M103.495 237.761C103.495 237.761 98.4706 237.809 96.0892 240.256C96.0892 240.256 96.6846 241.36 96.7084 241.432C97.137 242.512 97.137 243.808 97.3037 244.96C97.4466 246.04 97.5657 247.144 97.6609 248.223C97.8514 250.647 98.0657 253.335 97.3513 255.686H105.329C105.329 255.686 105.496 250.695 106.21 248.127C106.901 245.584 107.424 238.793 103.495 237.761Z" fill="url(#paint24_linear)"/>
<path d="M105.329 255.686H97.3513C97.3513 255.686 96.7798 261.35 96.7798 264.469C96.7798 267.589 97.0656 275.316 97.0656 275.316H104.948C104.948 275.316 104.972 271.476 106.686 266.533C108.401 261.542 107.948 259.238 105.329 255.686Z" fill="url(#paint25_linear)"/>
<path d="M96.7084 296.145L99.7089 295.377L100.09 294.681H102.09L102.4 297.129H95.8273C95.9702 296.625 96.3274 296.241 96.7084 296.145Z" fill="url(#paint26_linear)"/>
<path d="M87.3497 234.617C92.0171 239.56 99.3516 238.481 99.3516 238.481L99.5183 242.272C92.4934 243.448 86.0637 236.009 86.0637 236.009C86.2781 235.481 87.3497 234.617 87.3497 234.617Z" fill="url(#paint27_linear)"/>
<path d="M98.3753 232.265C98.0657 231.881 97.8038 231.449 97.5895 230.97C96.875 229.266 98.5658 228.21 99.9946 227.898C103.829 227.058 106.996 230.418 108.091 233.801C108.639 235.529 108.663 237.737 108.258 239.512C107.853 241.36 107.663 242.8 107.901 244.696C108.02 245.728 108.353 246.951 108.044 247.983C107.258 250.743 103.067 251.703 100.852 250.335C99.566 249.543 98.8516 248.007 98.7801 246.495C98.7087 244.984 99.185 243.496 99.8755 242.152C100.233 241.456 100.661 240.76 100.947 240.016C101.59 238.241 101.281 236.153 100.137 234.641C99.566 233.849 98.7563 233.105 98.3753 232.265Z" fill="#351586"/>
<path d="M238.589 288.85L241.137 287.29L241.279 286.546L243.113 285.994L244.089 288.154L238.041 290.002C238.041 289.498 238.231 289.066 238.589 288.85Z" fill="#6A3346"/>
<path d="M231.659 240.4C228.92 240.016 225.158 237.785 224.872 237.545C224.586 237.305 224.777 236.657 224.777 236.513C224.777 236.345 225.134 235.529 224.92 235.337C224.705 235.121 224.277 236.153 224.277 236.153C224.277 236.153 222.848 235.217 222.086 234.473C221.324 233.729 221.348 235.625 221.514 236.273C221.681 236.921 222.681 237.497 223.396 237.905C223.396 237.905 230.301 244.24 232.349 243.664C233.778 243.28 235.398 239.632 235.398 239.632L233.207 237.713L231.659 240.4Z" fill="#E7E3D3"/>
<path d="M242.589 249.975L244.494 249.711C244.494 249.711 247.138 255.494 243.637 259.79L240.827 270.876C240.827 270.876 243.518 279.515 243.065 286.498L241.256 286.93L237.136 274.212L237.184 265.093L242.589 249.975Z" fill="url(#paint28_linear)"/>
<path d="M243.399 249.903L234.969 250.479C234.969 250.479 233.016 263.845 233.326 270.612C233.635 277.38 234.183 287.002 234.183 287.002L236.302 287.194C239.184 272.892 238.303 269.101 238.303 269.101C238.398 268.045 241.875 258.95 241.875 258.95C241.875 258.95 245.78 254.991 243.399 249.903Z" fill="url(#paint29_linear)"/>
<path d="M238.97 228.762C239.232 229.338 239.541 231.713 239.684 232.913C240.065 233.057 240.327 233.273 240.351 233.561C240.398 234.113 239.541 234.641 238.446 234.761C237.326 234.881 236.398 234.521 236.35 233.969C236.326 233.753 236.445 233.537 236.66 233.369L236.707 230.898L233.874 230.562L234.135 228.714L233.612 228.522L234.636 225.162C240.208 226.29 238.612 227.97 238.97 228.762Z" fill="#E7E3D3"/>
<path d="M240.613 232.649C240.613 232.649 235.945 233.105 235.707 233.537C235.469 233.969 232.826 237.593 232.826 237.593C232.826 237.593 233.635 238.841 234.921 239.632C234.921 239.632 233.897 241 234.469 242.752C235.04 244.504 235.255 250.311 234.731 251.943C234.207 253.599 244.732 250.359 244.732 250.359C244.732 250.359 243.494 243.64 243.756 241.384C244.018 239.129 242.613 233.417 242.613 233.417L240.613 232.649Z" fill="url(#paint30_linear)"/>
<path d="M234.778 224.035C234.874 223.675 235.064 223.291 235.35 222.883C238.827 218.227 244.018 224.73 245.685 227.802C246.661 229.554 247.114 231.738 245.899 233.489C244.566 235.385 239.851 236.897 238.541 234.209C237.922 232.913 237.993 231.642 238.327 230.25C238.589 229.218 238.565 227.586 237.398 227.082C235.564 226.722 234.374 225.546 234.778 224.035Z" fill="#8552A5"/>
<path d="M231.159 288.442L234.04 287.698L234.397 287.026H236.302L236.612 289.378H230.278C230.444 288.898 230.754 288.538 231.159 288.442Z" fill="#6A3346"/>
<path d="M166.029 252.351C166.029 252.351 167.077 267.517 167.077 268.309C167.077 269.101 166.029 286.834 166.029 286.834H163.457L161.933 270.828L157.718 254.607L166.029 252.351Z" fill="url(#paint31_linear)"/>
<path d="M169.887 288.586L166.339 287.674L165.91 286.858H163.552L163.171 289.762H170.958C170.768 289.138 170.363 288.706 169.887 288.586Z" fill="url(#paint32_linear)"/>
<path d="M164.076 228.762L164.029 226.914L164.553 226.794L163.933 223.387C158.337 223.891 159.719 225.714 159.29 226.434C158.98 226.914 158.504 228.858 158.218 230.082C158.004 230.226 157.647 231.426 157.623 231.642C157.575 232.194 158.528 231.738 159.504 231.81C160.457 231.906 161.171 232.745 161.219 232.194C161.243 232.002 161.29 230.586 161.147 230.418L161.29 228.906L164.076 228.762Z" fill="#E7E3D3"/>
<path d="M165.148 220.699C164.934 220.147 164.41 219.691 163.814 219.691C163.6 219.691 163.362 219.739 163.148 219.787C162.1 220.027 161.028 220.291 159.98 220.531C159.147 220.723 158.575 221.059 157.909 221.635C156.242 223.051 156.027 225.738 157.361 227.442C157.432 227.538 158.718 228.642 158.742 228.522L159.338 226.146L159.933 226.482L160.123 226.362C160.076 225.738 160.29 225.162 160.933 224.994C161.719 224.778 162.481 224.443 163.171 224.011C163.791 223.627 164.576 223.219 164.934 222.547C164.957 222.523 164.957 222.475 164.981 222.451C165.291 221.923 165.362 221.275 165.148 220.699Z" fill="#8552A5"/>
<path d="M164.91 289.378L161.171 288.394L160.719 287.53H158.218L157.813 290.602H166.053C165.815 289.954 165.41 289.498 164.91 289.378Z" fill="url(#paint33_linear)"/>
<path d="M166.077 252.375C166.077 252.375 163.1 270.18 162.648 271.26C162.195 272.34 160.504 282.851 160.957 288.058C160.957 288.058 159.361 288.514 158.099 288.058C158.099 288.058 156.575 278.531 157.218 274.5C157.837 270.468 157.932 264.805 157.671 263.365C157.409 261.926 155.075 255.998 156.599 251.871C158.123 247.743 166.077 252.375 166.077 252.375Z" fill="url(#paint34_linear)"/>
<path d="M163.362 233.225C163.124 232.721 162.862 232.217 162.576 231.762C161.814 230.61 160.576 229.65 159.123 229.866C157.933 230.058 157.051 231.042 156.48 232.049C155.551 233.681 155.408 235.649 155.67 237.473C156.385 242.2 157.98 246.448 157.266 249.687C157.266 249.687 156.861 250.935 156.313 252.015C156.313 252.015 159.171 254.655 166.172 252.663C166.291 248.271 166.053 243.76 165.291 239.417C165.029 238.025 164.696 236.633 164.195 235.313C163.957 234.641 163.672 233.921 163.362 233.225Z" fill="url(#paint35_linear)"/>
<path d="M176.555 230.178L174.126 230.73C174.126 230.73 174.126 229.626 173.864 229.866C173.602 230.106 173.149 231.282 172.959 231.33C172.768 231.378 166.339 235.601 166.339 235.601L161.052 234.041L163.552 237.689C165.029 238.121 166.243 238.385 166.553 238.193C166.958 237.929 173.292 232.937 173.626 232.673C173.959 232.409 175.959 232.169 176.674 231.474C177.388 230.754 176.555 230.178 176.555 230.178Z" fill="#E7E3D3"/>
<path d="M172.506 231.594L166.172 235.217C163.314 234.209 160.195 233.321 158.385 232.817L162.076 238.193C163.91 238.505 165.481 238.745 165.886 238.745C167.005 238.721 173.078 233.081 173.078 233.081C173.244 232.074 172.506 231.594 172.506 231.594Z" fill="url(#paint36_linear)"/>
<path d="M262.169 174.831H246.747V188.429H262.169V174.831Z" fill="#296EB4"/>
<path d="M249.639 155.405H241.446V162.69H249.639V155.405Z" fill="#95CDE6"/>
<path d="M31.8072 99.0707H20.241V109.269H31.8072V99.0707Z" fill="#296EB4"/>
<path d="M23.6144 140.35H8.19276V153.948H23.6144V140.35Z" fill="#95CDE6"/>
<path d="M115.181 61.1907V76.7312H146.024L130.602 61.1907H115.181Z" fill="#95CDE6"/>
<path d="M13.494 149.092L3.96371e-06 149.092L2.78403e-06 176.287L13.494 162.689L13.494 149.092Z" fill="#296EB4"/>
<defs>
<linearGradient id="paint0_linear" x1="262.143" y1="308.861" x2="218.989" y2="283.746" gradientUnits="userSpaceOnUse">
<stop offset="0.00492611" stop-color="#378ABD"/>
<stop offset="1" stop-color="#C5E9F0"/>
</linearGradient>
<linearGradient id="paint1_linear" x1="192.157" y1="309.513" x2="149.003" y2="284.398" gradientUnits="userSpaceOnUse">
<stop offset="0.00492611" stop-color="#378ABD"/>
<stop offset="1" stop-color="#C5E9F0"/>
</linearGradient>
<linearGradient id="paint2_linear" x1="127.974" y1="316.332" x2="84.8201" y2="291.217" gradientUnits="userSpaceOnUse">
<stop offset="0.00492611" stop-color="#378ABD"/>
<stop offset="1" stop-color="#C5E9F0"/>
</linearGradient>
<linearGradient id="paint3_linear" x1="150.695" y1="333.579" x2="32.8313" y2="264.984" gradientUnits="userSpaceOnUse">
<stop offset="0.00492611" stop-color="#378ABD"/>
<stop offset="1" stop-color="#C5E9F0"/>
</linearGradient>
<linearGradient id="paint4_linear" x1="193.253" y1="5.04008" x2="155.753" y2="129.686" gradientUnits="userSpaceOnUse">
<stop stop-color="#C5E9F0"/>
<stop offset="0.9951" stop-color="#378ABD"/>
</linearGradient>
<linearGradient id="paint5_linear" x1="99.1518" y1="244.865" x2="85.5207" y2="236.652" gradientUnits="userSpaceOnUse">
<stop offset="0.00985222" stop-color="#EE4D70"/>
<stop offset="1" stop-color="#F7DE5B"/>
</linearGradient>
<linearGradient id="paint6_linear" x1="57.2865" y1="227.754" x2="100.431" y2="227.754" gradientUnits="userSpaceOnUse">
<stop stop-color="#F76D82"/>
<stop offset="0.9901" stop-color="#B54AA2"/>
</linearGradient>
<linearGradient id="paint7_linear" x1="25.6525" y1="291.596" x2="60.2425" y2="188.292" gradientUnits="userSpaceOnUse">
<stop offset="0.00985222" stop-color="#223B98"/>
<stop offset="1" stop-color="#2B73B2"/>
</linearGradient>
<linearGradient id="paint8_linear" x1="50.7768" y1="175.061" x2="65.9154" y2="208.59" gradientUnits="userSpaceOnUse">
<stop stop-color="#F7DE5B"/>
<stop offset="0.9901" stop-color="#EE4D70"/>
</linearGradient>
<linearGradient id="paint9_linear" x1="62.7179" y1="169.669" x2="77.8567" y2="203.199" gradientUnits="userSpaceOnUse">
<stop stop-color="#F7DE5B"/>
<stop offset="0.9901" stop-color="#EE4D70"/>
</linearGradient>
<linearGradient id="paint10_linear" x1="64.9215" y1="168.666" x2="80.0601" y2="202.195" gradientUnits="userSpaceOnUse">
<stop stop-color="#F7DE5B"/>
<stop offset="0.9901" stop-color="#EE4D70"/>
</linearGradient>
<linearGradient id="paint11_linear" x1="56.4895" y1="172.481" x2="71.6282" y2="206.011" gradientUnits="userSpaceOnUse">
<stop stop-color="#F7DE5B"/>
<stop offset="0.9901" stop-color="#EE4D70"/>
</linearGradient>
<linearGradient id="paint12_linear" x1="57.995" y1="158.113" x2="71.1467" y2="182.113" gradientUnits="userSpaceOnUse">
<stop stop-color="#F76D82"/>
<stop offset="0.9901" stop-color="#B54AA2"/>
</linearGradient>
<linearGradient id="paint13_linear" x1="66.1318" y1="156.581" x2="88.3083" y2="172.463" gradientUnits="userSpaceOnUse">
<stop stop-color="#F76D82"/>
<stop offset="0.9901" stop-color="#B54AA2"/>
</linearGradient>
<linearGradient id="paint14_linear" x1="205.281" y1="82.3298" x2="213.718" y2="82.3298" gradientUnits="userSpaceOnUse">
<stop stop-color="#924EA3"/>
<stop offset="0.9852" stop-color="#48258E"/>
</linearGradient>
<linearGradient id="paint15_linear" x1="186.52" y1="81.0881" x2="202.527" y2="81.0881" gradientUnits="userSpaceOnUse">
<stop stop-color="#F76D82"/>
<stop offset="0.9901" stop-color="#B54AA2"/>
</linearGradient>
<linearGradient id="paint16_linear" x1="184.941" y1="90.5076" x2="207.792" y2="90.5076" gradientUnits="userSpaceOnUse">
<stop stop-color="#F76D82"/>
<stop offset="0.9901" stop-color="#B54AA2"/>
</linearGradient>
<linearGradient id="paint17_linear" x1="169.381" y1="90.8018" x2="186.52" y2="90.8018" gradientUnits="userSpaceOnUse">
<stop stop-color="#924EA3"/>
<stop offset="0.9852" stop-color="#48258E"/>
</linearGradient>
<linearGradient id="paint18_linear" x1="192.195" y1="68.9004" x2="200.183" y2="68.9004" gradientUnits="userSpaceOnUse">
<stop stop-color="#924EA3"/>
<stop offset="0.9852" stop-color="#48258E"/>
</linearGradient>
<linearGradient id="paint19_linear" x1="171.467" y1="101.259" x2="183.964" y2="101.259" gradientUnits="userSpaceOnUse">
<stop stop-color="#924EA3"/>
<stop offset="0.9852" stop-color="#48258E"/>
</linearGradient>
<linearGradient id="paint20_linear" x1="170.949" y1="102.135" x2="180.214" y2="102.135" gradientUnits="userSpaceOnUse">
<stop stop-color="#924EA3"/>
<stop offset="0.9852" stop-color="#48258E"/>
</linearGradient>
<linearGradient id="paint21_linear" x1="177.414" y1="88.76" x2="183.327" y2="88.76" gradientUnits="userSpaceOnUse">
<stop stop-color="#C5E9F0"/>
<stop offset="0.9951" stop-color="#378ABD"/>
</linearGradient>
<linearGradient id="paint22_linear" x1="178.744" y1="87.9084" x2="184.632" y2="88.4492" gradientUnits="userSpaceOnUse">
<stop stop-color="#C5E9F0"/>
<stop offset="0.9951" stop-color="#378ABD"/>
</linearGradient>
<linearGradient id="paint23_linear" x1="100.455" y1="288.726" x2="113.644" y2="304.116" gradientUnits="userSpaceOnUse">
<stop stop-color="#F7DE5B"/>
<stop offset="0.9901" stop-color="#EE4D70"/>
</linearGradient>
<linearGradient id="paint24_linear" x1="94.887" y1="230.817" x2="106.023" y2="258.407" gradientUnits="userSpaceOnUse">
<stop stop-color="#F7DE5B"/>
<stop offset="0.9901" stop-color="#EE4D70"/>
</linearGradient>
<linearGradient id="paint25_linear" x1="96.7849" y1="265.494" x2="107.699" y2="265.494" gradientUnits="userSpaceOnUse">
<stop offset="0.00985222" stop-color="#223B98"/>
<stop offset="1" stop-color="#2B73B2"/>
</linearGradient>
<linearGradient id="paint26_linear" x1="96.0685" y1="292.485" x2="109.257" y2="307.875" gradientUnits="userSpaceOnUse">
<stop stop-color="#F7DE5B"/>
<stop offset="0.9901" stop-color="#EE4D70"/>
</linearGradient>
<linearGradient id="paint27_linear" x1="90.8113" y1="232.461" x2="101.947" y2="260.052" gradientUnits="userSpaceOnUse">
<stop stop-color="#F7DE5B"/>
<stop offset="0.9901" stop-color="#EE4D70"/>
</linearGradient>
<linearGradient id="paint28_linear" x1="227.055" y1="230.389" x2="247.684" y2="279.131" gradientUnits="userSpaceOnUse">
<stop stop-color="#F7DE5B"/>
<stop offset="0.9901" stop-color="#EE4D70"/>
</linearGradient>
<linearGradient id="paint29_linear" x1="223.535" y1="231.879" x2="244.164" y2="280.621" gradientUnits="userSpaceOnUse">
<stop stop-color="#F7DE5B"/>
<stop offset="0.9901" stop-color="#EE4D70"/>
</linearGradient>
<linearGradient id="paint30_linear" x1="232.838" y1="242.524" x2="244.736" y2="242.524" gradientUnits="userSpaceOnUse">
<stop offset="0.00985222" stop-color="#223B98"/>
<stop offset="1" stop-color="#2B73B2"/>
</linearGradient>
<linearGradient id="paint31_linear" x1="169.787" y1="244.364" x2="157.659" y2="284.047" gradientUnits="userSpaceOnUse">
<stop stop-color="#924EA3"/>
<stop offset="0.9852" stop-color="#48258E"/>
</linearGradient>
<linearGradient id="paint32_linear" x1="163.167" y1="288.294" x2="170.953" y2="288.294" gradientUnits="userSpaceOnUse">
<stop offset="0.00985222" stop-color="#223B98"/>
<stop offset="1" stop-color="#2B73B2"/>
</linearGradient>
<linearGradient id="paint33_linear" x1="157.791" y1="289.063" x2="166.023" y2="289.063" gradientUnits="userSpaceOnUse">
<stop offset="0.00985222" stop-color="#223B98"/>
<stop offset="1" stop-color="#2B73B2"/>
</linearGradient>
<linearGradient id="paint34_linear" x1="166.761" y1="243.439" x2="154.633" y2="283.122" gradientUnits="userSpaceOnUse">
<stop stop-color="#924EA3"/>
<stop offset="0.9852" stop-color="#48258E"/>
</linearGradient>
<linearGradient id="paint35_linear" x1="155.342" y1="263.373" x2="166.488" y2="224.335" gradientUnits="userSpaceOnUse">
<stop offset="0.00985222" stop-color="#223B98"/>
<stop offset="1" stop-color="#2B73B2"/>
</linearGradient>
<linearGradient id="paint36_linear" x1="174.875" y1="259.458" x2="161.635" y2="221.091" gradientUnits="userSpaceOnUse">
<stop offset="0.00985222" stop-color="#223B98"/>
<stop offset="1" stop-color="#2B73B2"/>
</linearGradient>
</defs>
</svg>
