<svg width="120" height="120" viewBox="0 0 120 120" fill="none" xmlns="http://www.w3.org/2000/svg">
<g clip-path="url(#clip0)">
<path d="M40.7618 100.082L33.7615 96.5817C38.4434 95.2469 41.3895 93.517 42.8576 92.4881C44.2692 91.4986 44.7982 89.7061 44.1441 88.1292C42.7538 84.7783 41.1206 78.4003 41.0918 71.4527C41.0517 61.7967 33.6253 53.5535 24.1847 52.6865C23.0149 52.5792 21.8334 52.5792 20.6644 52.6865C11.2238 53.5535 3.79712 61.7967 3.75704 71.4527C3.72821 78.4003 2.09485 84.7783 0.704775 88.1292C0.0506348 89.7063 0.579853 91.4986 1.99149 92.4881C3.45962 93.517 6.40524 95.2469 11.0876 96.5817L4.08751 100.082C1.56657 101.343 0.000244141 103.877 0.000244141 106.695V118.242C0.000244141 119.213 0.787041 120 1.75806 120C2.72907 120 3.51587 119.213 3.51587 118.242V106.695C3.51587 105.217 4.33735 103.888 5.65993 103.226L11.209 100.452C13.5366 104.375 17.8069 106.848 22.4248 106.848C27.0837 106.848 31.3184 104.386 33.6413 100.452L39.1894 103.226C40.512 103.888 41.3332 105.217 41.3332 106.695V118.242C41.3332 119.213 42.12 120 43.091 120C44.062 120 44.8488 119.213 44.8488 118.242V106.695C44.8488 103.877 43.283 101.343 40.7618 100.082ZM22.4248 103.333C19.137 103.333 16.0931 101.614 14.3672 98.8727L15.4974 98.3076C17.3777 97.3673 18.5461 95.4771 18.5461 93.3745V91.3036C19.7836 91.6373 21.0832 91.8185 22.4248 91.8185C23.7509 91.8185 25.0535 91.6404 26.3032 91.3022V93.3745C26.3032 95.4768 27.4713 97.3671 29.352 98.3076L30.4868 98.875C28.7651 101.623 25.7421 103.333 22.4248 103.333ZM29.8922 93.9117C29.8446 93.7397 29.8188 93.5594 29.8188 93.3745V89.8483C32.107 88.5405 34.0509 86.6313 35.3953 84.2655C37.8609 79.9268 36.9699 74.3261 33.2766 70.9483C30.6872 68.5802 26.0508 65.7574 18.6673 65.7574C18.2011 65.7574 17.7542 65.9425 17.4242 66.2723L13.6667 70.0296C12.9802 70.7161 12.9802 71.8291 13.6667 72.5153C14.3534 73.2018 15.4662 73.2018 16.1527 72.5153L19.3854 69.2826C24.0825 69.4141 27.9549 70.8454 30.904 73.5424C33.398 75.8233 34.0015 79.6026 32.3388 82.5283C30.3148 86.0899 26.5158 88.3024 22.4248 88.3024C16.1421 88.3024 11.0311 83.1911 11.0311 76.9087C11.0311 75.9379 10.2443 75.1509 9.27329 75.1509C8.30228 75.1509 7.51548 75.9379 7.51548 76.9087C7.51548 82.44 10.5455 87.2737 15.0305 89.8471V93.3743C15.0305 93.5592 15.0045 93.7394 14.9571 93.9114C9.03001 92.6838 5.56079 90.6961 4.0097 89.6093C3.97712 89.5865 3.92626 89.5389 3.95228 89.4766C5.4647 85.8304 7.24196 78.9264 7.2729 71.4677C7.30548 63.6028 13.3289 56.891 20.9862 56.1879C21.9424 56.1 22.9064 56.1 23.8631 56.1879C31.5202 56.891 37.5436 63.6028 37.5762 71.4677C37.6071 78.9264 39.3844 85.8307 40.8968 89.4766C40.9228 89.5392 40.8724 89.5868 40.8401 89.6093C39.2885 90.6963 35.8188 92.684 29.8922 93.9117Z" fill="#296EB4"/>
<path d="M9.27307 108.969C8.30206 108.969 7.51526 109.756 7.51526 110.727V118.242C7.51526 119.213 8.30206 120 9.27307 120C10.2441 120 11.0309 119.213 11.0309 118.242V110.727C11.0309 109.756 10.2441 108.969 9.27307 108.969Z" fill="#296EB4"/>
<path d="M35.576 108.969C34.605 108.969 33.8182 109.756 33.8182 110.727V118.242C33.8182 119.213 34.605 120 35.576 120C36.5471 120 37.3339 119.213 37.3339 118.242V110.727C37.3339 109.756 36.5471 108.969 35.576 108.969Z" fill="#296EB4"/>
<path d="M104.187 67.9315C103.932 67.7616 97.8301 63.7932 87.8372 65.7917C87.0155 65.956 86.4242 66.6774 86.4242 67.5153V69.394C86.4242 70.3648 87.211 71.1518 88.182 71.1518C89.153 71.1518 89.9398 70.3648 89.9398 69.394V68.9965C93.7055 68.4586 96.6847 68.9 98.5974 69.4032C100.902 70.0095 102.201 70.8338 102.244 70.8614C102.542 71.0581 102.878 71.1521 103.211 71.1521C103.779 71.1521 104.336 70.8771 104.675 70.369C105.213 69.5614 104.995 68.4699 104.187 67.9315Z" fill="#296EB4"/>
<path d="M115.202 98.3158L106.268 94.9652C105.491 94.6741 104.97 93.9218 104.97 93.0928V88.5855C105.353 88.2804 105.723 87.9551 106.079 87.6094C108.998 84.7765 110.606 80.9761 110.606 76.909V73.5663L111.109 72.5601C112.009 70.7604 112.485 68.7455 112.485 66.7326V56.2422C112.485 55.2715 111.698 54.4844 110.727 54.4844H91.1501C84.4001 54.4844 78.9089 59.9758 78.9089 66.7326C78.9089 68.745 79.3845 70.7601 80.2845 72.5599L80.7874 73.5661V76.3572C80.7874 81.1922 82.9992 85.5642 86.4239 88.4163V93.0926C86.4239 93.9215 85.9024 94.6739 85.1262 94.965L76.1918 98.3156C73.3219 99.3916 71.3937 102.174 71.3937 105.239V118.242C71.3937 119.213 72.1805 120 73.1515 120C74.1225 120 74.9093 119.213 74.9093 118.242V105.239C74.9093 103.631 75.9206 102.172 77.426 101.608L86.3606 98.257C86.8441 98.0756 87.2895 97.8265 87.6928 97.5276L93.9389 102.212V118.242C93.9389 119.213 94.7257 120 95.6967 120C96.6677 120 97.4545 119.213 97.4545 118.242V102.212L103.7 97.5276C104.104 97.8267 104.549 98.0758 105.033 98.257L113.968 101.608C115.473 102.172 116.484 103.631 116.484 105.239V118.242C116.484 119.213 117.271 120 118.242 120C119.213 120 120 119.213 120 118.242V105.239C120 102.174 118.072 99.3919 115.202 98.3158ZM95.697 99.1359L89.7106 94.6462C89.8582 94.1487 89.9395 93.6269 89.9395 93.093V90.6016C91.5823 91.3263 93.3691 91.7552 95.2397 91.8115C95.3944 91.8162 95.5484 91.8185 95.7026 91.8185C97.71 91.8185 99.6551 91.4222 101.454 90.6689V93.093C101.454 93.6272 101.536 94.1487 101.683 94.6462L95.697 99.1359ZM103.631 85.0863C101.401 87.2503 98.4602 88.3908 95.3449 88.2972C89.2566 88.1147 84.3033 82.7585 84.3033 76.3575V73.1512C84.3033 72.8782 84.2398 72.6091 84.1177 72.3651L83.4291 70.9877C82.7719 69.6736 82.4248 68.2022 82.4248 66.7258C82.4248 61.9144 86.3391 58.0001 91.1503 58.0001H108.969V66.7326C108.969 68.2022 108.622 69.6736 107.965 70.9877L107.276 72.3651C107.154 72.6094 107.091 72.8782 107.091 73.1512V76.9087C107.091 80.017 105.862 82.9212 103.631 85.0863Z" fill="#296EB4"/>
<path d="M82.5455 107.09C81.5745 107.09 80.7877 107.877 80.7877 108.848V118.242C80.7877 119.213 81.5745 120 82.5455 120C83.5165 120 84.3033 119.213 84.3033 118.242V108.848C84.3033 107.877 83.5165 107.09 82.5455 107.09Z" fill="#296EB4"/>
<path d="M108.849 107.09C107.877 107.09 107.091 107.877 107.091 108.848V118.242C107.091 119.213 107.877 120 108.849 120C109.82 120 110.606 119.213 110.606 118.242V108.848C110.606 107.877 109.82 107.09 108.849 107.09Z" fill="#296EB4"/>
<path d="M86.3032 7.51523H86.1823V7.3943C86.1823 3.31687 82.8654 0 78.788 0H26.1823C22.1048 0 18.788 3.31687 18.788 7.39406V37.4545C18.788 41.5317 22.1048 44.8486 26.1823 44.8486H33.8182V44.9695C33.8182 49.0467 37.1351 52.3636 41.2125 52.3636H42.7186L42.0129 55.1862C41.7344 56.2997 42.1694 57.4343 43.1212 58.0763C43.5834 58.388 44.1075 58.5434 44.6306 58.5434C45.1849 58.5434 45.7385 58.369 46.2162 58.0216L53.9962 52.3634H55.7107L70.3727 62.1382C70.826 62.4403 71.3473 62.5915 71.869 62.5915C72.3778 62.592 72.8871 62.4478 73.3334 62.1593C74.2366 61.575 74.7061 60.5121 74.5294 59.4511L73.3481 52.3641H86.3032C90.3804 52.3641 93.6975 49.0472 93.6975 44.97V14.9093C93.6975 10.8321 90.3806 7.51523 86.3032 7.51523ZM43.5975 48.8482H41.2125C39.0738 48.8482 37.3338 47.1084 37.3338 44.9698V44.8488H44.5973L43.5975 48.8482ZM45.9698 53.8542L48.5541 43.5173C48.6853 42.9923 48.5674 42.4359 48.2341 42.0091C47.9011 41.5826 47.3899 41.3332 46.8487 41.3332H26.1823C24.0436 41.3332 22.3036 39.5934 22.3036 37.4548V7.39406C22.3036 5.25539 24.0436 3.51562 26.1823 3.51562H78.788C80.9266 3.51562 82.6666 5.25539 82.6666 7.39406V37.4545C82.6666 39.5932 80.9266 41.333 78.788 41.333H63.7577C63.3862 41.333 63.0244 41.4506 62.7239 41.6693L45.9698 53.8542ZM90.1816 44.9695C90.1816 47.1082 88.4416 48.848 86.303 48.848H71.2727C70.7559 48.848 70.2654 49.0753 69.9314 49.4695C69.5974 49.8638 69.454 50.3855 69.5391 50.895L70.7508 58.1655L57.847 49.5633L64.3291 44.8488H78.7877C82.8649 44.8488 86.182 41.532 86.182 37.4548V11.0306H86.303C88.4416 11.0306 90.1816 12.7704 90.1816 14.9091V44.9695Z" fill="#296EB4"/>
<path d="M39.3328 11.2728H33.6973C32.7262 11.2728 31.9395 12.0598 31.9395 13.0306C31.9395 14.0014 32.7265 14.7884 33.6973 14.7884H39.3328C40.3038 14.7884 41.0906 14.0014 41.0906 13.0306C41.0906 12.0598 40.3038 11.2728 39.3328 11.2728Z" fill="#296EB4"/>
<path d="M71.273 11.2728H46.8492C45.8782 11.2728 45.0914 12.0598 45.0914 13.0306C45.0914 14.0014 45.8782 14.7884 46.8492 14.7884H71.273C72.244 14.7884 73.0308 14.0014 73.0308 13.0306C73.0308 12.0598 72.244 11.2728 71.273 11.2728Z" fill="#296EB4"/>
<path d="M71.2727 20.6667H33.6973C32.7262 20.6667 31.9395 21.4537 31.9395 22.4245C31.9395 23.3953 32.7265 24.1823 33.6973 24.1823H71.2727C72.2437 24.1823 73.0305 23.3953 73.0305 22.4245C73.0305 21.4537 72.2437 20.6667 71.2727 20.6667Z" fill="#296EB4"/>
<path d="M58.121 30.0605H33.6973C32.7262 30.0605 31.9395 30.8475 31.9395 31.8183C31.9395 32.7891 32.7262 33.5761 33.6973 33.5761H58.121C59.092 33.5761 59.8788 32.7891 59.8788 31.8183C59.8788 30.8475 59.092 30.0605 58.121 30.0605Z" fill="#296EB4"/>
<path d="M71.273 30.0605H65.6375C64.6664 30.0605 63.8796 30.8475 63.8796 31.8183C63.8796 32.7891 64.6664 33.5761 65.6375 33.5761H71.273C72.244 33.5761 73.0308 32.7891 73.0308 31.8183C73.0308 30.8475 72.2438 30.0605 71.273 30.0605Z" fill="#296EB4"/>
</g>
<defs>
<clipPath id="clip0">
<rect width="120" height="120" fill="white"/>
</clipPath>
</defs>
</svg>
