<svg width="120" height="120" viewBox="0 0 120 120" fill="none" xmlns="http://www.w3.org/2000/svg">
<g clip-path="url(#clip0)">
<path d="M26.9681 63.1247C22.8863 61.0837 15.2332 61.0603 14.9093 61.0603C13.9385 61.0603 13.1522 61.8469 13.1517 62.8177C13.1515 63.7882 13.9381 64.5755 14.9088 64.5759C16.8863 64.5771 22.6252 64.8837 25.3957 66.2691C25.6481 66.3954 25.9165 66.4549 26.1806 66.4549C26.8254 66.4549 27.4463 66.0987 27.7542 65.483C28.1885 64.6146 27.8365 63.5587 26.9681 63.1247Z" fill="#296EB4"/>
<path d="M9.27283 96.7571C8.30181 96.7571 7.51501 97.5441 7.51501 98.5149V111.666C7.51501 112.637 8.30181 113.424 9.27283 113.424C10.2438 113.424 11.0306 112.637 11.0306 111.666V98.5149C11.0306 97.5439 10.2438 96.7571 9.27283 96.7571Z" fill="#296EB4"/>
<path d="M67.5705 55.7925L68.7237 54.7001C69.4287 54.0326 69.4589 52.9198 68.7914 52.2152C68.1232 51.5102 67.0109 51.4805 66.3061 52.148L31.6955 84.9342C31.3219 85.289 30.8327 85.4843 30.3178 85.4843H29.9395C28.8368 85.4843 27.9398 84.5871 27.9398 83.4846C27.9398 83.4553 27.9412 83.2341 27.9427 82.9394C28.5319 82.5309 29.0939 82.0739 29.6196 81.5639C32.171 79.088 33.5761 75.7666 33.5761 72.2121V68.8694L34.2776 67.4665C35.0477 65.9259 35.4548 64.2014 35.4548 62.4794V53.4244C35.4548 52.4536 34.668 51.6666 33.697 51.6666H16.788C10.6392 51.6666 5.63648 56.6693 5.63648 62.8183V62.9229C5.63648 64.3554 5.97492 65.7893 6.61547 67.0699L7.51523 68.8697V71.7396C7.51523 76.2879 9.75656 80.369 13.1517 82.8251V84.408C13.1517 85.2963 12.5552 86.0869 11.7014 86.3308L5.3632 88.1419C2.20523 89.0437 0 91.9676 0 95.2512V111.666C0 112.637 0.786797 113.424 1.75781 113.424C2.72883 113.424 3.51562 112.637 3.51562 111.666V95.2512C3.51562 93.5287 4.6725 91.995 6.32883 91.5218L12.667 89.7108C13.2171 89.5537 13.7264 89.3114 14.187 89.0055L15.3169 90.1357C16.7585 91.5773 18.6518 92.298 20.5455 92.298C22.4388 92.298 24.3326 91.5771 25.774 90.1359L27.4249 88.4852C27.4458 88.4644 27.4638 88.4421 27.4833 88.4208C28.2234 88.7906 29.0573 89.0001 29.9398 89.0001H30.318C31.7381 89.0001 33.087 88.4615 34.1152 87.4851L58.7986 64.1027L61.2715 66.5756L32.7762 95.0709C31.0247 96.8226 30.0602 99.1512 30.0602 101.628V111.666C30.0602 112.637 30.847 113.424 31.818 113.424C32.7891 113.424 33.5759 112.637 33.5759 111.666V101.628C33.5759 100.09 34.1749 98.6444 35.2622 97.5567L67.2532 65.5655C68.6154 64.2035 69.1713 62.1966 68.7042 60.3276L67.5705 55.7925ZM24.9394 85.9992L23.288 87.6499C21.7755 89.1623 19.3151 89.1621 17.8031 87.6499L16.3608 86.2076C16.5366 85.7032 16.6369 85.1688 16.6584 84.619C17.767 84.9837 18.9363 85.2 20.1462 85.2363C20.2812 85.2405 20.4159 85.2424 20.5505 85.2424C21.9262 85.2424 23.268 85.0275 24.5421 84.6187C24.6396 85.0837 24.7966 85.5269 25.0036 85.9411C24.9823 85.9605 24.96 85.9786 24.9394 85.9992ZM27.1713 79.0406C25.3092 80.8476 22.8541 81.7985 20.2516 81.7221C15.1671 81.5698 11.0306 77.0916 11.0306 71.7394V68.4544C11.0306 68.1816 10.9671 67.9123 10.845 67.6683L9.75961 65.4973C9.36211 64.7023 9.15187 63.8121 9.15187 62.9226V62.8181C9.15187 58.6076 12.5773 55.1819 16.7878 55.1819H31.9392V62.4792C31.9392 63.6583 31.6605 64.8394 31.1332 65.8941L30.2461 67.668C30.124 67.9123 30.0605 68.1813 30.0605 68.4541V72.2116C30.0605 74.8073 29.0344 77.2324 27.1713 79.0406ZM64.7677 63.0794L63.7575 64.0896L61.3519 61.684L64.6409 58.5684L65.2938 61.1801C65.4633 61.8579 65.2615 62.5858 64.7677 63.0794Z" fill="#296EB4"/>
<path d="M114.485 6.57562H54.3636C51.3223 6.57562 48.8483 9.04992 48.8483 12.0909V59.7654C48.8483 60.7362 49.6351 61.5232 50.6061 61.5232C51.5771 61.5232 52.3639 60.7362 52.3639 59.7654V12.0909C52.3639 10.9882 53.2608 10.0912 54.3636 10.0912H114.485C115.587 10.0912 116.484 10.9884 116.484 12.0909V60.9391C116.484 62.0419 115.587 62.9388 114.485 62.9388H74.2969C73.3259 62.9388 72.5391 63.7259 72.5391 64.6966C72.5391 65.6674 73.3259 66.4545 74.2969 66.4545H114.485C117.526 66.4545 120 63.9802 120 60.9391V12.0909C120 9.04969 117.526 6.57562 114.485 6.57562Z" fill="#296EB4"/>
<path d="M108.848 17.8481H99.4541C98.4831 17.8481 97.6963 18.6352 97.6963 19.606C97.6963 20.5767 98.4831 21.3638 99.4541 21.3638H104.604L85.3633 40.6048L77.2124 32.4539C76.5257 31.7674 75.4129 31.7674 74.7264 32.4539L58.7568 48.4235C58.0703 49.11 58.0703 50.2231 58.7568 50.9093C59.1002 51.2524 59.5502 51.4242 59.9999 51.4242C60.4497 51.4242 60.8997 51.2527 61.2431 50.9093L75.9695 36.1828L84.1204 44.3337C84.8071 45.0199 85.9199 45.0204 86.6064 44.3337L107.09 23.8498V28.9999C107.09 29.9707 107.877 30.7578 108.848 30.7578C109.819 30.7578 110.606 29.9707 110.606 28.9999V19.606C110.606 18.6352 109.819 17.8481 108.848 17.8481Z" fill="#296EB4"/>
</g>
<defs>
<clipPath id="clip0">
<rect width="120" height="120" fill="white"/>
</clipPath>
</defs>
</svg>
