<svg width="120" height="120" viewBox="0 0 120 120" fill="none" xmlns="http://www.w3.org/2000/svg">
<path d="M104.08 100.163L99.3344 98.2645V96.6399C101.675 94.9001 103.092 92.1438 103.092 89.2242V84.4446C103.092 82.4646 102.319 80.6044 100.917 79.2068C99.5205 77.8156 97.6685 77.0506 95.6986 77.0506C95.6894 77.0506 95.6801 77.0506 95.6709 77.0506L91.9134 77.0642C89.2158 77.074 86.8533 78.5407 85.5696 80.7143L82.4252 79.4567V77.832C84.7654 76.0924 86.1827 73.3362 86.1827 70.4163V65.6367C86.1827 63.6567 85.4102 61.7965 84.0077 60.3989C82.6113 59.0077 80.7593 58.2427 78.7893 58.2427C78.7802 58.2427 78.7711 58.2427 78.7619 58.2427L75.0044 58.2563C70.942 58.2708 67.6369 61.5877 67.6369 65.6503V70.4163C67.6369 73.3362 69.0541 76.0922 71.3943 77.832V79.4567L68.2626 80.7094C67.9443 80.1675 67.5555 79.6624 67.0985 79.2071C65.7023 77.816 63.8503 77.051 61.8806 77.051C61.8715 77.051 61.8621 77.051 61.8529 77.051L58.0952 77.0646C55.3976 77.0745 53.0351 78.5412 51.7514 80.7148L48.607 79.4571V77.8324C50.9472 76.0927 52.3645 73.3364 52.3645 70.4168V65.6372C52.3645 63.6572 51.592 61.797 50.1895 60.3994C48.7931 59.0081 46.9411 58.2431 44.9709 58.2431C44.9618 58.2431 44.9526 58.2431 44.9435 58.2431L41.186 58.2567C37.1236 58.2713 33.8184 61.5881 33.8184 65.6508V70.4168C33.8184 73.3367 35.2357 76.0929 37.5759 77.8324V79.4569L34.4442 80.7096C34.1259 80.1678 33.7371 79.6627 33.28 79.2073C31.8839 77.816 30.0318 77.051 28.0619 77.051C28.0528 77.051 28.0434 77.051 28.0343 77.051L24.2768 77.0646C20.2143 77.0794 16.9092 80.3963 16.9092 84.4587V89.2247C16.9092 92.1445 18.3265 94.9006 20.6667 96.6403V98.265L15.9208 100.163C13.0973 101.293 11.2727 103.987 11.2727 107.029V118.242C11.2727 119.213 12.0597 120 13.0305 120C14.0013 120 14.7883 119.213 14.7883 118.242V107.028C14.7883 105.433 15.7453 104.019 17.2265 103.427L22.7629 101.212H29.6008L35.1377 103.427C36.6187 104.019 37.5757 105.433 37.5757 107.028V118.242C37.5757 119.213 38.3627 120 39.3335 120C40.3043 120 41.0913 119.213 41.0913 118.242V107.028C41.0913 103.987 39.2667 101.292 36.4432 100.163L31.6973 98.2645V96.6401C34.0376 94.9003 35.455 92.1441 35.455 89.2242V84.4446C35.455 84.3274 35.452 84.2107 35.4466 84.0945L39.6722 82.4044H46.5103L50.7365 84.0949C50.7307 84.2154 50.7274 84.3366 50.7274 84.4585V89.2245C50.7274 92.1443 52.1447 94.9003 54.4849 96.6401V98.2645L49.739 100.163C46.9155 101.292 45.0909 103.987 45.0909 107.028V118.242C45.0909 119.213 45.8779 120 46.8487 120C47.8195 120 48.6065 119.213 48.6065 118.242V107.028C48.6065 105.433 49.5635 104.019 51.0445 103.427L56.5809 101.212H63.419L68.9557 103.427C70.4367 104.019 71.3936 105.433 71.3936 107.028V118.242C71.3936 119.213 72.1807 120 73.1515 120C74.1222 120 74.9093 119.213 74.9093 118.242V107.028C74.9093 103.987 73.0847 101.292 70.2611 100.163L65.5153 98.2645V96.6399C67.8555 94.9001 69.2728 92.1438 69.2728 89.2242V84.4446C69.2728 84.3274 69.2697 84.2107 69.2644 84.0945L73.4899 82.4042H80.3278L84.554 84.0945C84.5482 84.2149 84.5449 84.3361 84.5449 84.458V89.224C84.5449 92.1438 85.9622 94.9001 88.3026 96.6399V98.2643L83.5568 100.163C80.7333 101.292 78.9087 103.987 78.9087 107.028V118.242C78.9087 119.213 79.6957 120 80.6665 120C81.6372 120 82.4243 119.213 82.4243 118.242V107.028C82.4243 105.433 83.3812 104.019 84.8625 103.427L90.3989 101.212H97.2368L102.774 103.427C104.255 104.019 105.212 105.433 105.212 107.028V118.242C105.212 119.213 105.999 120 106.969 120C107.94 120 108.727 119.213 108.727 118.242V107.028C108.728 103.987 106.904 101.292 104.08 100.163ZM31.9404 89.224C31.9404 91.2748 30.8622 93.1266 29.0564 94.1775C28.5154 94.4923 28.1826 95.071 28.1826 95.6967V97.6964H24.1833V95.6967C24.1833 95.071 23.8507 94.4923 23.3095 94.1775C21.5036 93.1266 20.4255 91.2748 20.4255 89.224V84.458C20.4255 82.3271 22.1592 80.5871 24.2901 80.5796L28.0479 80.566C29.0866 80.5706 30.0637 80.9639 30.7994 81.6968C31.5351 82.4299 31.9404 83.4056 31.9404 84.4444V89.224ZM45.9658 75.3694C45.4249 75.6842 45.0921 76.2628 45.0921 76.8886V78.8885H41.0927V76.8886C41.0927 76.2628 40.7599 75.6842 40.219 75.3694C38.4129 74.3185 37.335 72.4667 37.335 70.4159V65.6499C37.335 63.5189 39.0684 61.7789 41.1996 61.7714L44.9571 61.7578C44.962 61.7578 44.9667 61.7578 44.9716 61.7578C46.005 61.7578 46.9765 62.1591 47.7089 62.8889C48.4446 63.622 48.8498 64.5978 48.8498 65.6365V70.4161C48.8498 72.4669 47.7717 74.3185 45.9658 75.3694ZM62.8744 94.1775C62.3334 94.4923 62.0006 95.071 62.0006 95.6967V97.6964H58.0012V95.6967C58.0012 95.071 57.6686 94.4923 57.1275 94.1775C55.3216 93.1266 54.2435 91.2748 54.2435 89.224V84.458C54.2435 82.3271 55.9769 80.5871 58.1079 80.5796L61.8656 80.566C61.8705 80.566 61.8752 80.566 61.8801 80.566C62.9133 80.566 63.8847 80.9672 64.6172 81.6968C65.3529 82.4299 65.7581 83.4056 65.7581 84.4444V89.224H65.7583C65.7583 91.2748 64.6802 93.1266 62.8744 94.1775ZM79.7836 75.3694C79.2426 75.6842 78.9098 76.2628 78.9098 76.8886V78.8885H74.9104V76.8886C74.9104 76.2628 74.5776 75.6842 74.0367 75.3694C72.2311 74.3185 71.1529 72.4667 71.1529 70.4159V65.6499C71.1529 63.5189 72.8866 61.7789 75.0176 61.7714L78.7751 61.7578C78.78 61.7578 78.7847 61.7578 78.7896 61.7578C79.8227 61.7578 80.7944 62.1591 81.5266 62.8889C82.2623 63.622 82.6675 64.5978 82.6675 65.6365V70.4161C82.6675 72.4669 81.5894 74.3187 79.7836 75.3694ZM96.6928 94.1775C96.1518 94.4923 95.819 95.071 95.819 95.6967V97.6964H91.8197V95.6967C91.8197 95.071 91.4871 94.4923 90.9459 94.1775C89.1401 93.1266 88.0619 91.2748 88.0619 89.224V84.458C88.0619 82.3271 89.7956 80.5871 91.9265 80.5796L95.6843 80.566C96.7291 80.5706 97.7001 80.9639 98.4358 81.6968C99.1715 82.4299 99.5768 83.4056 99.5768 84.4444V89.224C99.5768 91.2748 98.4986 93.1266 96.6928 94.1775Z" fill="#296EB4"/>
<path d="M80.284 32.7731C79.9636 32.2549 79.3978 31.9395 78.7887 31.9395H73.0315V28.5045C73.0315 26.4019 71.8634 24.5116 69.9828 23.5713L65.5833 21.3717C65.5421 21.3511 65.5165 21.3096 65.5165 21.2634V18.6668C65.5165 18.6452 65.5142 18.6244 65.5132 18.603C67.7932 16.912 69.274 14.2017 69.274 11.1516V7.39406C69.274 3.31687 65.9571 0 61.88 0H58.1225C54.0453 0 50.7284 3.31687 50.7284 7.39406V11.1516C50.7284 14.2017 52.2092 16.912 54.4892 18.603C54.4885 18.6244 54.4859 18.6452 54.4859 18.6668V21.2632C54.4859 21.3094 54.4603 21.3509 54.4191 21.3715L50.0196 23.5711C48.139 24.5114 46.9709 26.4016 46.9709 28.5042V31.9392H41.2137C40.6046 31.9392 40.0388 32.2547 39.7184 32.7729C39.398 33.2911 39.3689 33.9382 39.6415 34.4831L43.3988 41.9984C43.6964 42.5939 44.3051 42.9701 44.971 42.9701H46.9707V54.3638C46.9707 55.3345 47.7577 56.1216 48.7285 56.1216C49.6992 56.1216 50.4863 55.3345 50.4863 54.3638V42.9701H69.5159V54.3638C69.5159 55.3345 70.3029 56.1216 71.2737 56.1216C72.2445 56.1216 73.0315 55.3345 73.0315 54.3638V42.9701H75.0312C75.6971 42.9701 76.3057 42.5939 76.6034 41.9984L80.3609 34.4834C80.6335 33.9384 80.6044 33.2913 80.284 32.7731ZM54.244 11.1516V7.39406C54.244 5.25539 55.9838 3.51562 58.1225 3.51562H61.88C64.0186 3.51562 65.7584 5.25539 65.7584 7.39406V11.1516C65.7584 14.3262 63.1756 16.9087 60.0012 16.9087C56.8268 16.9087 54.244 14.3259 54.244 11.1516ZM62.4893 23.0866L60.0867 25.4892C60.0394 25.5366 59.9625 25.5366 59.9154 25.4892L57.5128 23.0864C57.8267 22.5443 58.0013 21.9199 58.0013 21.263V20.2048C58.646 20.3473 59.3145 20.4246 60.0012 20.4246C60.6879 20.4246 61.3564 20.3473 62.0009 20.205V21.2632C62.0009 21.9199 62.1755 22.5443 62.4893 23.0866ZM50.486 28.5042C50.4863 27.7418 50.9098 27.0565 51.5916 26.7155L54.6439 25.1895L57.4296 27.9752C58.1386 28.684 59.0698 29.0386 60.001 29.0386C60.9321 29.0386 61.8635 28.684 62.5725 27.9752L65.3581 25.1895L68.4103 26.7155C69.0921 27.0565 69.5157 27.7418 69.5157 28.5042V31.9392H50.486V28.5042ZM73.9451 39.4542H46.0573L44.0576 35.4548H75.9448L73.9451 39.4542Z" fill="#296EB4"/>
<path d="M63.7587 46.9694H56.2437C55.2729 46.9694 54.4858 47.7565 54.4858 48.7272C54.4858 49.698 55.2729 50.485 56.2437 50.485H63.7587C64.7294 50.485 65.5165 49.698 65.5165 48.7272C65.5165 47.7565 64.7294 46.9694 63.7587 46.9694Z" fill="#296EB4"/>
</svg>
