<svg width="47" height="48" viewBox="0 0 47 48" fill="none" xmlns="http://www.w3.org/2000/svg">
<path d="M46.3913 21.7647L24.3565 1.5654C24.318 1.52591 24.2794 1.49629 24.2313 1.46668C23.7498 0.992794 22.9793 0.973049 22.4689 1.43706L0.434107 21.6363C-0.105206 22.1299 -0.143728 22.9691 0.32817 23.522C0.588196 23.8182 0.944528 23.9662 1.30086 23.9662C1.60904 23.9662 1.91722 23.8576 2.16761 23.6306L6.13541 19.9876V20.6984V31.2423V43.5435C6.13541 45.3897 7.59926 46.9002 9.40981 46.9002C9.4387 46.9002 9.45797 46.9002 9.48686 46.9002C9.51575 46.9002 9.53501 46.9002 9.5639 46.9002H16.3631C18.0581 46.9002 19.4353 45.4884 19.4353 43.7509V31.7754C19.4353 31.5089 19.6471 31.2917 19.9071 31.2917H26.9278C27.1879 31.2917 27.3997 31.5089 27.3997 31.7754V43.7509C27.3997 45.4884 28.7769 46.9002 30.4719 46.9002H37.4252C39.255 46.9002 40.6996 45.054 40.6996 42.6945V31.7162V28.3595V20.1159L44.6674 23.7589C44.9178 23.986 45.226 24.0946 45.5341 24.0946C45.8905 24.0946 46.2468 23.9465 46.5068 23.6503C46.9691 23.0975 46.9209 22.2583 46.3913 21.7647ZM38.0897 28.3497V31.7063V42.6748C38.0897 43.6324 37.6274 44.2149 37.4156 44.2149H30.4623C30.2022 44.2149 29.9904 43.9977 29.9904 43.7311V31.7754C29.9904 30.0379 28.6132 28.6261 26.9182 28.6261H19.8975C18.2025 28.6261 16.8254 30.0379 16.8254 31.7754V43.7509C16.8254 44.0174 16.6135 44.2346 16.3535 44.2346H9.55427C9.52538 44.2346 9.50612 44.2346 9.47723 44.2346C9.44833 44.2346 9.42907 44.2346 9.40018 44.2346C9.03422 44.2346 8.72604 43.9286 8.72604 43.5435V31.2325V20.6886V17.5984L23.3453 4.21125L38.0897 17.7268V28.3497Z" fill="#95CDE6"/>
</svg>
