<svg width="47" height="48" viewBox="0 0 47 48" fill="none" xmlns="http://www.w3.org/2000/svg">
<path d="M23.402 0C13.0556 0 4.6333 8.63396 4.6333 19.2403C4.6333 20.4478 4.74128 21.6654 4.96705 22.8528C4.97687 22.9233 5.01613 23.1346 5.09466 23.4969C5.37934 24.795 5.80143 26.073 6.35115 27.2906C8.37329 32.1711 12.8201 39.6679 22.5774 47.6981C22.8228 47.8994 23.1173 48 23.4118 48C23.7063 48 24.0008 47.8994 24.2462 47.6981C33.9937 39.6679 38.4503 32.1711 40.4725 27.2906C41.0222 26.073 41.4443 24.805 41.7289 23.4969C41.8075 23.1346 41.8467 22.9233 41.8565 22.8528C42.0725 21.6654 42.1903 20.4478 42.1903 19.2403C42.1707 8.63396 33.7483 0 23.402 0ZM39.2258 22.3799C39.2258 22.4 39.216 22.4201 39.216 22.4403C39.2062 22.4906 39.1767 22.6415 39.1276 22.873C39.1276 22.883 39.1276 22.883 39.1276 22.8931C38.8822 24.0201 38.519 25.117 38.038 26.1736C38.0282 26.1836 38.0282 26.2038 38.0184 26.2138C36.1827 30.6717 32.1581 37.4742 23.402 44.8906C14.6459 37.4742 10.6212 30.6717 8.78558 26.2138C8.77576 26.2038 8.77576 26.1836 8.76595 26.1736C8.29476 25.127 7.93156 24.0201 7.67634 22.8931C7.67634 22.883 7.67634 22.883 7.67634 22.873C7.61744 22.6415 7.59781 22.4906 7.58799 22.4403C7.58799 22.4201 7.57818 22.4 7.57818 22.3698C7.38185 21.3333 7.28369 20.2868 7.28369 19.2302C7.28369 10.1233 14.5183 2.70692 23.402 2.70692C32.2857 2.70692 39.5203 10.1233 39.5203 19.2302C39.5203 20.2969 39.4221 21.3535 39.2258 22.3799Z" fill="#95CDE6"/>
<path d="M23.402 7.23522C16.835 7.23522 11.4851 12.7195 11.4851 19.4516C11.4851 26.1836 16.835 31.6679 23.402 31.6679C29.9691 31.6679 35.319 26.1836 35.319 19.4516C35.319 12.7195 29.9691 7.23522 23.402 7.23522ZM23.402 28.9509C18.2878 28.9509 14.1355 24.6843 14.1355 19.4516C14.1355 14.2189 18.2976 9.9522 23.402 9.9522C28.5065 9.9522 32.6686 14.2189 32.6686 19.4516C32.6686 24.6843 28.5163 28.9509 23.402 28.9509Z" fill="#95CDE6"/>
</svg>
