<svg width="47" height="48" viewBox="0 0 47 48" fill="none" xmlns="http://www.w3.org/2000/svg">
<path d="M43.7906 3.11013C39.76 -1.03194 33.2054 -1.03194 29.1748 3.11013L2.37751 30.5705C2.168 30.7853 2.0383 31.0614 1.99839 31.358L0.0130384 46.4331C-0.0468216 46.8626 0.102828 47.2922 0.392151 47.5888C0.641568 47.8445 0.99075 47.9979 1.33993 47.9979C1.39979 47.9979 1.45965 47.9979 1.51951 47.9876L10.3788 46.7604C11.1171 46.6581 11.6358 45.9626 11.5361 45.2058C11.4363 44.449 10.7579 43.9172 10.0196 44.0194L2.91624 45.0013L4.303 34.4876L15.0977 45.5535C15.3472 45.8092 15.6963 45.9626 16.0455 45.9626C16.3947 45.9626 16.7439 45.8194 16.9933 45.5535L43.7906 18.0932C45.746 16.0886 46.8235 13.4295 46.8235 10.5965C46.8235 7.76356 45.746 5.10446 43.7906 3.11013ZM29.6936 6.48515L34.1931 11.0977L9.74028 36.1648L5.2408 31.5523L29.6936 6.48515ZM16.0555 42.6285L11.6558 38.1183L36.1086 13.0511L40.5083 17.5613L16.0555 42.6285ZM42.3839 15.5875L31.6191 4.55218C32.9859 3.39649 34.6919 2.7624 36.4877 2.7624C38.5329 2.7624 40.4484 3.58059 41.895 5.05332C43.3416 6.52605 44.1298 8.49993 44.1298 10.5965C44.1298 12.4477 43.5112 14.1863 42.3839 15.5875Z" fill="#95CDE6"/>
</svg>
