<svg width="47" height="48" viewBox="0 0 47 48" fill="none" xmlns="http://www.w3.org/2000/svg">
<path d="M39.9595 7.03518C35.5379 2.50251 29.6653 0 23.4104 0C17.1555 0 11.283 2.50251 6.86142 7.03518C-1.66799 15.7789 -2.28564 29.7487 5.3124 39.2161C4.26338 41.4171 3.02809 42.8844 1.62613 43.5879C0.773187 44.0201 0.292795 44.9648 0.43005 45.9296C0.577109 46.9045 1.3026 47.6583 2.25358 47.809C2.77319 47.8894 3.33201 47.9397 3.91044 47.9397C6.78299 47.9397 9.8026 46.9246 12.3222 45.1457C15.7144 47.0151 19.5281 48 23.4104 48C29.6653 48 35.5379 45.5075 39.9595 40.9749C44.381 36.4422 46.8124 30.4121 46.8124 24.01C46.8124 17.608 44.381 11.5678 39.9595 7.03518ZM38.0869 39.0452C34.1653 43.0653 28.9497 45.2764 23.4104 45.2764C19.7046 45.2764 16.0673 44.2613 12.9006 42.3518C12.6948 42.2312 12.4595 42.1608 12.234 42.1608C11.9497 42.1608 11.6555 42.2613 11.4202 42.4422C8.42025 44.8241 5.40064 45.1759 4.07711 45.206C5.65554 44 6.97907 42.1307 8.08691 39.5276C8.2928 39.0452 8.20456 38.4824 7.86142 38.0804C0.60652 29.6784 0.988873 16.8744 8.73397 8.93467C12.6555 4.91457 17.8712 2.70352 23.4104 2.70352C28.9497 2.70352 34.1653 4.91457 38.0869 8.93467C46.185 17.2462 46.185 30.7538 38.0869 39.0452Z" fill="#95CDE6"/>
<path d="M33.2141 16.0804H13.6062C12.871 16.0804 12.2827 16.6834 12.2827 17.4372C12.2827 18.191 12.871 18.794 13.6062 18.794H33.2141C33.9494 18.794 34.5376 18.191 34.5376 17.4372C34.5376 16.6834 33.9396 16.0804 33.2141 16.0804Z" fill="#95CDE6"/>
<path d="M33.2141 22.6432H13.6062C12.871 22.6432 12.2827 23.2462 12.2827 24C12.2827 24.7538 12.871 25.3568 13.6062 25.3568H33.2141C33.9494 25.3568 34.5376 24.7538 34.5376 24C34.5376 23.2462 33.9396 22.6432 33.2141 22.6432Z" fill="#95CDE6"/>
<path d="M33.2141 29.2061H13.6062C12.871 29.2061 12.2827 29.8091 12.2827 30.5628C12.2827 31.3166 12.871 31.9196 13.6062 31.9196H33.2141C33.9494 31.9196 34.5376 31.3166 34.5376 30.5628C34.5376 29.8091 33.9396 29.2061 33.2141 29.2061Z" fill="#95CDE6"/>
</svg>
