<svg width="20" height="20" viewBox="0 0 20 20" fill="none" xmlns="http://www.w3.org/2000/svg">
<path d="M16.5492 4.09948H16.0353V2.95544C16.0353 1.32642 14.7088 0 13.0798 0H6.87464C5.24562 0 3.9192 1.32642 3.9192 2.95544V4.09948H3.4508C1.82179 4.09948 0.495361 5.42591 0.495361 7.05492V11.8218C0.495361 13.4508 1.82179 14.7772 3.4508 14.7772H3.91505V18.5244C3.91505 19.3368 4.57826 20 5.3907 20H14.5555C15.3679 20 16.0311 19.3368 16.0311 18.5244V14.7772H16.5492C18.1783 14.7772 19.5047 13.4508 19.5047 11.8218V7.05492C19.5047 5.42591 18.1783 4.09948 16.5492 4.09948ZM5.03422 2.95544C5.03422 1.94404 5.85909 1.11917 6.87049 1.11917H13.0715C14.0829 1.11917 14.9078 1.94404 14.9078 2.95544V4.09948H5.03422V2.95544ZM14.9119 18.5326C14.9119 18.7275 14.7503 18.8891 14.5555 18.8891H5.3907C5.19588 18.8891 5.03422 18.7275 5.03422 18.5326V12.3523H14.9119V18.5326ZM18.3855 11.8259C18.3855 12.8373 17.5606 13.6622 16.5492 13.6622H16.0353V12.3523H16.7731C17.084 12.3523 17.3327 12.1036 17.3327 11.7927C17.3327 11.4819 17.084 11.2332 16.7731 11.2332H3.09432C2.78344 11.2332 2.53474 11.4819 2.53474 11.7927C2.53474 12.1036 2.78344 12.3523 3.09432 12.3523H3.9192V13.6622H3.4508C2.4394 13.6622 1.61453 12.8373 1.61453 11.8259V7.05907C1.61453 6.04767 2.4394 5.2228 3.4508 5.2228H16.5492C17.5606 5.2228 18.3855 6.04767 18.3855 7.05907V11.8259Z" fill="#296EB4"/>
<path d="M6.38966 15.1048H13.5151C13.8259 15.1048 14.0746 14.8561 14.0746 14.5452C14.0746 14.2343 13.8259 13.9856 13.5151 13.9856H6.38966C6.07878 13.9856 5.83008 14.2343 5.83008 14.5452C5.83008 14.8561 6.08293 15.1048 6.38966 15.1048Z" fill="#296EB4"/>
<path d="M13.5607 16.2734H6.43117C6.12029 16.2734 5.87158 16.5221 5.87158 16.833C5.87158 17.1439 6.12029 17.3926 6.43117 17.3926H13.5566C13.8674 17.3926 14.1161 17.1439 14.1161 16.833C14.1161 16.5221 13.8674 16.2734 13.5607 16.2734Z" fill="#296EB4"/>
<path d="M16.5368 6.29639H15.401C15.0901 6.29639 14.8414 6.54509 14.8414 6.85597C14.8414 7.16685 15.0901 7.41556 15.401 7.41556H16.5368C16.8476 7.41556 17.0964 7.16685 17.0964 6.85597C17.0964 6.54509 16.8476 6.29639 16.5368 6.29639Z" fill="#296EB4"/>
</svg>
