<svg width="20" height="20" viewBox="0 0 20 20" fill="none" xmlns="http://www.w3.org/2000/svg">
<g clip-path="url(#clip0)">
<path d="M17.5585 2.38989H2.44569C1.09663 2.38989 0 3.48652 0 4.83558V15.1646C0 16.5136 1.09663 17.6103 2.44569 17.6103H17.5543C18.9034 17.6103 20 16.5136 20 15.1646V4.83972C20.0041 3.49066 18.9075 2.38989 17.5585 2.38989ZM18.8868 15.1646C18.8868 15.897 18.2909 16.4929 17.5585 16.4929H2.44569C1.71322 16.4929 1.11732 15.897 1.11732 15.1646V4.83972C1.11732 4.10725 1.71322 3.51135 2.44569 3.51135H17.5543C18.2868 3.51135 18.8827 4.10725 18.8827 4.83972V15.1646H18.8868Z" fill="#296EB4"/>
<path d="M12.6133 9.87194L17.5046 5.48543C17.7322 5.27851 17.7529 4.92677 17.546 4.69503C17.3391 4.46742 16.9874 4.44673 16.7556 4.65364L10.0103 10.7079L8.69437 9.5326C8.69023 9.52846 8.68609 9.52433 8.68609 9.52019C8.65712 9.49122 8.62816 9.46639 8.59505 9.44156L3.2402 4.64951C3.00846 4.4426 2.65671 4.46329 2.4498 4.69503C2.24289 4.92677 2.26358 5.27851 2.49532 5.48543L7.44463 9.90918L2.51601 14.5233C2.29255 14.7343 2.28013 15.0861 2.49118 15.3137C2.60291 15.4296 2.75189 15.4916 2.90086 15.4916C3.03743 15.4916 3.17399 15.442 3.28158 15.3427L8.28468 10.6623L9.64202 11.8748C9.74961 11.97 9.88204 12.0155 10.0145 12.0155C10.1469 12.0155 10.2834 11.9659 10.3869 11.8707L11.7815 10.621L16.7556 15.3468C16.8632 15.4503 17.0039 15.4999 17.1405 15.4999C17.2894 15.4999 17.4343 15.442 17.546 15.3261C17.7571 15.1026 17.7488 14.7468 17.5253 14.5357L12.6133 9.87194Z" fill="#296EB4"/>
</g>
<defs>
<clipPath id="clip0">
<rect width="20" height="20" fill="white"/>
</clipPath>
</defs>
</svg>
